<?xml version="1.0" standalone="no"?>
<!DOCTYPE svg PUBLIC "-//W3C//DTD SVG 20010904//EN"
 "http://www.w3.org/TR/2001/REC-SVG-20010904/DTD/svg10.dtd">
<svg version="1.0" xmlns="http://www.w3.org/2000/svg"
 width="310.000000pt" height="310.000000pt" viewBox="0 0 310.000000 310.000000"
 preserveAspectRatio="xMidYMid meet">
<metadata>
Created by potrace 1.11, written by Peter Selinger 2001-2013
</metadata>
<g transform="translate(0.000000,310.000000) scale(0.100000,-0.100000)"
fill="#000000" stroke="none">
<path d="M2480 2856 c-113 -32 -203 -106 -248 -206 -37 -81 -43 -222 -12 -303
97 -259 427 -331 620 -135 95 97 132 238 96 376 -50 196 -263 321 -456 268z
m152 -172 c129 -44 187 -203 114 -314 -79 -120 -230 -132 -324 -24 -107 121
-62 281 95 339 50 18 61 18 115 -1z"/>
<path d="M1108 2524 c-441 -68 -807 -399 -924 -834 -91 -339 -32 -685 169
-985 52 -78 205 -230 284 -283 352 -237 780 -269 1148 -85 127 64 222 133 312
226 177 184 280 395 317 649 20 133 20 200 0 335 -56 384 -293 713 -629 874
-219 105 -445 140 -677 103z m310 -315 c114 -25 141 -34 202 -62 93 -44 176
-101 246 -171 81 -82 114 -131 194 -297 4 -8 18 -55 30 -103 63 -252 -2 -534
-171 -736 -110 -132 -276 -237 -443 -280 -108 -27 -273 -27 -382 0 -290 74
-519 297 -611 595 -23 78 -26 352 -4 430 59 206 190 390 355 499 71 47 199
101 287 119 79 18 234 21 297 6z"/>
<path d="M1095 2098 c-261 -72 -476 -302 -525 -560 -13 -69 -14 -249 -1 -316
23 -115 100 -263 184 -352 204 -217 496 -285 790 -185 128 43 271 162 356 294
43 67 60 107 102 239 14 44 14 294 0 321 -6 11 -11 30 -11 43 0 13 -4 28 -8
34 -4 5 -14 27 -21 48 -20 60 -94 175 -148 231 -94 98 -213 169 -345 204 -103
28 -272 27 -373 -1z m287 -209 c115 -25 233 -98 302 -188 129 -170 148 -376
51 -561 -60 -113 -149 -193 -276 -245 -55 -23 -79 -27 -170 -28 -123 -1 -179
17 -289 89 -114 75 -186 187 -215 336 -16 80 -16 93 -1 173 53 289 325 482
598 424z"/>
</g>
</svg>
