<?xml version="1.0" encoding="utf-8"?>
<!-- Generator: Adobe Illustrator 18.0.0, SVG Export Plug-In . SVG Version: 6.00 Build 0)  -->
<!DOCTYPE svg PUBLIC "-//W3C//DTD SVG 1.1//EN" "http://www.w3.org/Graphics/SVG/1.1/DTD/svg11.dtd">
<svg version="1.1" id="Слой_1" xmlns="http://www.w3.org/2000/svg" xmlns:xlink="http://www.w3.org/1999/xlink" x="0px" y="0px"
	 viewBox="0 0 841.9 595.3" enable-background="new 0 0 841.9 595.3" xml:space="preserve">
<path fill="#FFFFFF" d="M313.6,273.8c13.3,0,24.1,10.8,24.1,24.1s-10.8,24.1-24.1,24.1s-24.1-10.8-24.1-24.1
	C289.4,284.7,300.3,273.8,313.6,273.8 M313.6,263.8c-18.9,0-34.1,15.3-34.1,34.1c0,18.9,15.3,34.1,34.1,34.1
	c18.9,0,34.1-15.3,34.1-34.1C347.7,279.1,332.4,263.8,313.6,263.8L313.6,263.8z"/>
<path fill="#109E32" d="M351.7,260.1c3.1,0,5.7,2.5,5.7,5.7c0,3.1-2.5,5.7-5.7,5.7s-5.7-2.5-5.7-5.7
	C346,262.7,348.5,260.1,351.7,260.1 M351.7,254.1c-6.5,0-11.7,5.2-11.7,11.7c0,6.5,5.2,11.7,11.7,11.7s11.7-5.2,11.7-11.7
	C363.3,259.4,358.1,254.1,351.7,254.1L351.7,254.1z"/>
<path fill="#FFFFFF" d="M313.6,283.4c8,0,14.5,6.5,14.5,14.5c0,8-6.5,14.5-14.5,14.5s-14.5-6.5-14.5-14.5
	C299.1,289.9,305.6,283.4,313.6,283.4 M313.6,275.7c-12.3,0-22.2,9.9-22.2,22.2c0,12.3,9.9,22.2,22.2,22.2
	c12.3,0,22.2-9.9,22.2-22.2C335.8,285.7,325.8,275.7,313.6,275.7L313.6,275.7z"/>
<path fill="#FFFFFF" d="M380.6,295.4c-1.7,0-3.2,0.4-4.4,1.2c-1.2,0.8-2.2,1.9-2.9,3.2c-0.8,1.3-1.3,2.8-1.7,4.4
	c-0.3,1.7-0.5,3.3-0.5,5c0,1.1,0.1,2.1,0.4,3c0.2,0.9,0.6,1.7,1.2,2.3c0.5,0.6,1.3,1.2,2.2,1.5c0.9,0.4,2,0.5,3.3,0.5
	c1.3,0,2.5-0.2,3.8-0.5c1.3-0.3,2.4-0.6,3.2-0.9c0.4-0.2,0.6-0.2,0.7-0.1c0.1,0.1,0.2,0.2,0.3,0.4l1.1,2.3c0.2,0.5,0.1,0.8-0.5,1.1
	c-1.5,0.8-3.1,1.2-4.8,1.5c-1.7,0.2-3.2,0.3-4.5,0.3c-3.6,0-6.3-0.9-8.3-2.8c-2-1.9-3-4.7-3-8.5c0-2.7,0.3-5.2,1-7.4
	c0.7-2.2,1.6-4.2,2.8-5.8c1.2-1.6,2.7-2.9,4.4-3.8c1.7-0.9,3.7-1.3,5.9-1.3c1.5,0,3,0.1,4.6,0.4c1.6,0.3,3,0.8,4.1,1.5
	c0.4,0.2,0.4,0.6,0.2,1.1l-1,2.2c-0.2,0.5-0.6,0.6-1.1,0.3c-0.8-0.4-1.8-0.7-3-1C383,295.5,381.8,295.4,380.6,295.4z"/>
<path fill="#FFFFFF" d="M415.1,319.3c-0.1,0.4-0.2,0.6-0.3,0.7c-0.2,0.1-0.4,0.1-0.7,0.1H411c-0.3,0-0.5,0-0.7-0.1
	c-0.1-0.1-0.2-0.3-0.1-0.7l2.3-15.4c0.5-2.9,0.3-5.1-0.5-6.5c-0.8-1.4-2.6-2.1-5.3-2.1c-0.5,0-1.1,0-1.8,0.1c-0.6,0-1.3,0.1-1.9,0.2
	c-0.6,0.1-1.3,0.2-1.9,0.4c-0.6,0.1-1.2,0.3-1.7,0.5l-3.4,22.9c-0.1,0.4-0.2,0.6-0.3,0.7c-0.1,0.1-0.4,0.1-0.7,0.1h-3
	c-0.3,0-0.5,0-0.7-0.1c-0.2-0.1-0.2-0.3-0.1-0.7l5.6-37.8c0.1-0.4,0.2-0.6,0.3-0.7c0.2-0.1,0.4-0.1,0.7-0.1h3c0.3,0,0.5,0,0.7,0.1
	c0.1,0.1,0.2,0.3,0.1,0.7l-1.6,11c1.3-0.5,2.6-0.8,4.2-1c1.5-0.2,2.8-0.3,3.9-0.3c2.1,0,3.8,0.3,5.2,0.9c1.3,0.6,2.4,1.4,3.1,2.5
	c0.7,1.1,1.2,2.4,1.3,4c0.2,1.6,0.1,3.3-0.2,5.3L415.1,319.3z"/>
<path fill="#FFFFFF" d="M431.6,320.7c-3.6,0-6.3-0.9-8.1-2.6c-1.8-1.7-2.6-4.5-2.6-8.3c0-3.2,0.4-6,1.1-8.4c0.8-2.3,1.8-4.3,3.2-5.8
	c1.3-1.5,2.9-2.6,4.7-3.4s3.7-1.1,5.8-1.1c1.9,0,3.5,0.2,4.7,0.7c1.2,0.5,2.2,1.1,3,1.8c0.7,0.7,1.3,1.5,1.6,2.4
	c0.3,0.9,0.5,1.7,0.5,2.5c0,3.2-1.2,5.5-3.5,7c-2.4,1.5-6,2.2-10.9,2.2c-0.8,0-1.6,0-2.5-0.1c-0.9,0-1.8-0.1-2.7-0.3
	c-0.1,0.8-0.2,1.6-0.2,2.3c0,2.4,0.5,4.1,1.6,5.2s2.9,1.7,5.4,1.7c1.2,0,2.4-0.2,3.5-0.5c1.1-0.3,2.1-0.7,3-1.1
	c0.3-0.1,0.5-0.1,0.6-0.1c0.1,0,0.2,0.2,0.3,0.4l1.2,2.3c0.2,0.4,0,0.8-0.5,1.1c-1.4,0.8-3,1.3-4.6,1.6
	C434.6,320.6,433.1,320.7,431.6,320.7z M435.4,295.1c-2.5,0-4.5,0.7-6.1,2.2c-1.5,1.5-2.6,3.7-3,6.6c0.8,0.1,1.5,0.1,2.4,0.2
	c0.8,0,1.5,0.1,2.2,0.1c1.9,0,3.6-0.1,4.9-0.3c1.3-0.2,2.4-0.5,3.2-0.9c0.8-0.4,1.4-0.9,1.7-1.6c0.3-0.6,0.5-1.4,0.5-2.3
	c0-1-0.4-1.9-1.3-2.7C438.9,295.6,437.5,295.1,435.4,295.1z"/>
<path fill="#FFFFFF" d="M453.4,292.7c0.5-0.6,1.5-1,3-1.2c1.8-0.3,3.6-0.4,5.4-0.5c1.8-0.1,3.5-0.1,4.9-0.1c0.5,0,0.8,0.1,1,0.2
	c0.2,0.1,0.2,0.5,0.1,1l-0.5,2.8c-0.1,0.5-0.3,0.8-0.5,0.8c-0.2,0.1-0.5,0.1-0.8,0c-1.4-0.1-2.8-0.2-4.4-0.2c-1.6-0.1-3-0.2-4.4-0.2
	l-3.6,23.9c-0.1,0.4-0.2,0.6-0.3,0.7c-0.1,0.1-0.4,0.1-0.7,0.1h-3c-0.3,0-0.5,0-0.7-0.1c-0.1-0.1-0.2-0.3-0.1-0.7l3.5-23.7
	C452.5,294.3,452.8,293.4,453.4,292.7z"/>
<path fill="#FFFFFF" d="M492.1,320c-0.1,0.1-0.4,0.1-0.7,0.1h-3c-0.3,0-0.5,0-0.7-0.1c-0.1-0.1-0.2-0.3-0.1-0.7l2.2-14.3
	c0.2-1.6,0.3-3,0.3-4.2c-0.1-1.2-0.4-2.2-0.9-3c-0.6-0.8-1.4-1.4-2.5-1.8c-1.1-0.4-2.7-0.6-4.6-0.6c-0.4,0-1.1,0-2,0.1
	c-0.9,0.1-2,0.2-3.2,0.4l-3.5,23.6c-0.1,0.4-0.2,0.6-0.3,0.7c-0.1,0.1-0.4,0.1-0.7,0.1h-3c-0.3,0-0.5,0-0.7-0.1
	c-0.2-0.1-0.2-0.3-0.1-0.7l3.5-23.5c0.3-2.4,1.7-3.8,4.1-4.1c0.4-0.1,0.9-0.1,1.5-0.2c0.6-0.1,1.2-0.1,1.9-0.2
	c0.6-0.1,1.3-0.1,1.9-0.1c0.6,0,1.1,0,1.6,0c2.4,0,4.4,0.3,6,0.8c1.6,0.5,2.9,1.3,3.9,2.4c0.9,1.1,1.6,2.5,1.8,4.2
	c0.3,1.7,0.2,3.8-0.2,6.3l-2.1,14.5C492.3,319.7,492.2,319.9,492.1,320z"/>
<path fill="#FFFFFF" d="M502.9,319.3c-0.1,0.4-0.2,0.6-0.3,0.7c-0.1,0.1-0.4,0.1-0.7,0.1h-3c-0.3,0-0.5,0-0.7-0.1
	c-0.2-0.1-0.2-0.3-0.1-0.7l3.9-26.7c0.1-0.4,0.2-0.6,0.4-0.7c0.2-0.1,0.4-0.1,0.7-0.1h3c0.3,0,0.6,0,0.7,0.1
	c0.1,0.1,0.2,0.3,0.1,0.7L502.9,319.3z M506.2,281.1c0.8,0,1.5,0.3,2,0.8c0.5,0.5,0.8,1.2,0.8,2c0,1-0.4,1.8-1.2,2.5
	c-0.8,0.7-1.6,1.1-2.6,1.1c-0.8,0-1.4-0.3-1.9-0.8c-0.5-0.5-0.8-1.1-0.8-1.9c0-1,0.4-1.8,1.1-2.6S505.2,281.1,506.2,281.1z"/>
<path fill="#FFFFFF" d="M516.1,305.3l13.1-13.1c0.2-0.1,0.3-0.3,0.4-0.3c0.1-0.1,0.3-0.1,0.7-0.1h4.2c0.2,0,0.3,0.1,0.3,0.2
	c0,0.2,0,0.3-0.2,0.4l-8.7,8.7l6.3,18.4c0,0.1,0,0.2,0,0.4c0,0.1-0.2,0.2-0.4,0.2h-3.4c-0.6,0-1-0.2-1.1-0.6l-4.9-14.9l-7.6,7.3
	l-1.1,7.4c-0.1,0.4-0.2,0.6-0.3,0.7c-0.1,0.1-0.4,0.1-0.7,0.1h-3c-0.3,0-0.5,0-0.7-0.1c-0.2-0.1-0.2-0.3-0.1-0.7l5.6-37.8
	c0.1-0.4,0.2-0.6,0.3-0.7c0.2-0.1,0.4-0.1,0.7-0.1h3c0.3,0,0.5,0,0.7,0.1c0.1,0.1,0.2,0.3,0.1,0.7l-3.6,23.7L516.1,305.3z"/>
<path fill="#FFFFFF" d="M551.5,291.2c1.3,0,2.8,0.1,4.5,0.2c1.8,0.1,3.7,0.5,5.7,1c0.6,0.2,0.9,0.4,1,0.7c0.1,0.3,0.1,0.6,0,1
	c-0.6,4.2-1.3,8.2-1.8,12.1c-0.6,3.8-1.1,7.8-1.7,11.8c0,0.5-0.3,0.8-0.9,1.1c-0.8,0.3-1.7,0.6-2.7,0.8c-1,0.2-2,0.4-3,0.5
	c-1,0.1-2,0.2-3,0.3c-1,0.1-1.9,0.1-2.7,0.1c-2,0-3.8-0.3-5.2-0.8s-2.6-1.3-3.4-2.2c-0.9-0.9-1.5-2-1.9-3.3c-0.4-1.3-0.6-2.6-0.6-4
	c0-2.7,0.3-5.2,0.9-7.5c0.6-2.3,1.5-4.3,2.8-6.1c1.3-1.7,2.9-3.1,4.8-4.1C546.3,291.7,548.7,291.2,551.5,291.2z M548.3,316.6
	c0.4,0,0.9,0,1.5-0.1c0.6,0,1.1-0.1,1.7-0.2c0.6-0.1,1.1-0.2,1.7-0.3c0.5-0.1,1.1-0.2,1.5-0.4c0.5-3.4,0.9-6.7,1.4-9.9
	c0.5-3.2,1-6.4,1.5-9.7c-0.9-0.3-2-0.5-3.2-0.6c-1.2-0.1-2.2-0.2-3-0.2c-1.4,0-2.7,0.2-4,0.7c-1.3,0.5-2.4,1.3-3.4,2.4
	c-1,1.1-1.8,2.6-2.4,4.5c-0.6,1.9-0.9,4.2-0.9,7c0,2.2,0.6,3.8,1.7,5C543.6,316,545.6,316.6,548.3,316.6z"/>
<g>
	<path fill="#FFFFFF" d="M391.7,340.8H391c-0.3,0-0.4-0.1-0.4-0.3v-9.3c0.3-0.1,0.5-0.1,0.8-0.1c0.2,0,0.3,0.1,0.3,0.3v1
		c0.5-0.8,1.3-1.3,2.4-1.3c1.7,0,2.9,1.2,2.9,3.3c0,2.3-1.5,3.9-3.4,3.9c-0.8,0-1.4-0.2-1.9-0.7V340.8z M391.7,333.8v2.8
		c0.5,0.5,1.1,0.7,1.8,0.7c1.4,0,2.4-1.2,2.4-2.9c0-1.5-0.8-2.4-2-2.4C393.1,332,392.2,332.6,391.7,333.8z"/>
	<path fill="#FFFFFF" d="M400.8,338.2c-1.1,0-1.6-0.7-1.6-1.9v-7.5c0.3-0.1,0.5-0.1,0.8-0.1s0.3,0.1,0.3,0.3v7.4c0,0.7,0.3,1,0.8,1
		c0.2,0,0.5-0.1,0.7-0.1c0.1,0.1,0.1,0.3,0.1,0.5C402,337.8,401.5,338.2,400.8,338.2z"/>
	<path fill="#FFFFFF" d="M408.3,336.9c0.1,0.1,0.2,0.3,0.2,0.5c0,0.3-0.8,0.9-2,0.9c-2,0-3.4-1.5-3.4-3.6c0-2.2,1.6-3.6,3.4-3.6
		c1.6,0,2.7,1.1,2.7,2.5c0,0.4-0.1,0.7-0.2,1c-0.2,0.4-0.4,0.5-0.9,0.5h-3.9c0.1,1.4,1.2,2.2,2.4,2.2
		C407.2,337.3,407.8,337.2,408.3,336.9z M404.2,334.2h3.7c0.1-0.1,0.1-0.3,0.1-0.5c0-1-0.6-1.6-1.7-1.6
		C405.2,332,404.3,332.8,404.2,334.2z"/>
	<path fill="#FFFFFF" d="M417.2,337.3c0,0.1,0.1,0.2,0.1,0.4c0,0.2-0.3,0.5-0.8,0.5c-0.5,0-1-0.4-1.1-1.1c-0.5,0.7-1.3,1.2-2.3,1.2
		c-1.4,0-2.3-0.9-2.3-2.2c0-1.4,1.1-2.2,2.7-2.2c0.7,0,1.4,0.2,1.9,0.4v-0.6c0-1.1-0.7-1.7-2-1.7c-0.6,0-1.3,0.1-1.8,0.4
		c-0.1-0.1-0.2-0.3-0.2-0.5c0-0.4,1-0.9,2.3-0.9c1.8,0,2.9,0.9,2.9,2.7v2.8c0,0.5,0.2,0.7,0.5,0.7H417.2z M415.3,336v-0.9
		c-0.4-0.2-1.2-0.3-1.7-0.3c-1.1,0-1.8,0.5-1.8,1.2c0,0.8,0.6,1.2,1.4,1.2C414.1,337.3,414.9,336.9,415.3,336z"/>
	<path fill="#FFFFFF" d="M421.1,332c-0.8,0-1.3,0.4-1.3,1c0,0.6,0.5,1,1.7,1.3c1.5,0.4,2.1,1,2.1,2c0,1.2-0.9,1.9-2.5,1.9
		c-1.3,0-2.2-0.5-2.2-0.9c0-0.2,0.1-0.4,0.2-0.5c0.6,0.3,1.2,0.4,1.9,0.4c1,0,1.5-0.3,1.5-0.9c0-0.5-0.3-0.9-1.4-1.1
		c-1.7-0.4-2.4-1.1-2.4-2.2c0-1.2,1-2,2.4-2c1.1,0,2,0.5,2.4,1.2c0,0.1,0.1,0.2,0.1,0.2c0,0.1-0.1,0.2-0.2,0.3
		c-0.2,0.1-0.5,0.2-0.8,0.3C422.3,332.4,421.7,332,421.1,332z"/>
	<path fill="#FFFFFF" d="M431.8,337.3c0,0.1,0.1,0.2,0.1,0.4c0,0.2-0.3,0.5-0.8,0.5c-0.5,0-1-0.4-1.1-1.1c-0.5,0.7-1.3,1.2-2.3,1.2
		c-1.4,0-2.3-0.9-2.3-2.2c0-1.4,1.1-2.2,2.7-2.2c0.7,0,1.4,0.2,1.9,0.4v-0.6c0-1.1-0.7-1.7-2-1.7c-0.6,0-1.3,0.1-1.8,0.4
		c-0.1-0.1-0.2-0.3-0.2-0.5c0-0.4,1-0.9,2.3-0.9c1.8,0,2.9,0.9,2.9,2.7v2.8c0,0.5,0.2,0.7,0.5,0.7H431.8z M429.9,336v-0.9
		c-0.4-0.2-1.2-0.3-1.7-0.3c-1.1,0-1.8,0.5-1.8,1.2c0,0.8,0.6,1.2,1.4,1.2C428.6,337.3,429.5,336.9,429.9,336z"/>
	<path fill="#FFFFFF" d="M434,338.1c-0.3,0-0.4-0.1-0.4-0.3v-6.6c0.3-0.1,0.5-0.1,0.8-0.1c0.2,0,0.3,0.1,0.3,0.3v0.6
		c0.6-0.5,1.5-0.9,2.3-0.9c1.6,0,2.4,1.1,2.4,3v2.6c0,0.5,0.1,0.7,0.5,0.7h0.3c0.1,0.1,0.1,0.2,0.1,0.4c0,0.2-0.3,0.5-0.8,0.5
		c-0.6,0-1.1-0.3-1.1-1.5v-2.7c0-1.3-0.5-1.9-1.6-1.9c-0.7,0-1.5,0.3-2,0.8v5.2H434z"/>
	<path fill="#FFFFFF" d="M446,337.1c0.1,0.1,0.2,0.3,0.2,0.5c0,0.3-0.6,0.7-1.5,0.7c-1.3,0-2.1-0.8-2.1-2.4v-3.7h-1
		c-0.2,0-0.3-0.1-0.3-0.3c0-0.2,0-0.4,0.1-0.6h1.2v-1.9c0.3-0.1,0.5-0.1,0.8-0.1c0.2,0,0.3,0.1,0.3,0.3v1.8h2.2
		c0.2,0,0.3,0.1,0.3,0.4v0.6h-2.5v3.8c0,0.9,0.5,1.3,1.3,1.3C445.3,337.3,445.7,337.2,446,337.1z"/>
	<path fill="#FFFFFF" d="M458.6,334.6c0,2.3-1.5,3.6-3.4,3.6c-1.8,0-3.4-1.3-3.4-3.6s1.5-3.6,3.4-3.6
		C457.1,331,458.6,332.4,458.6,334.6z M457.5,334.7c0-1.8-1.1-2.7-2.3-2.7c-1.1,0-2.2,0.8-2.2,2.5c0,1.8,1.1,2.7,2.3,2.7
		C456.5,337.3,457.5,336.5,457.5,334.7z"/>
	<path fill="#FFFFFF" d="M461.1,338.1c-0.3,0-0.4-0.1-0.4-0.3v-6.6c0.3-0.1,0.5-0.1,0.8-0.1c0.2,0,0.3,0.1,0.3,0.3v0.6
		c0.6-0.5,1.5-0.9,2.3-0.9c1.6,0,2.4,1.1,2.4,3v2.6c0,0.5,0.1,0.7,0.5,0.7h0.3c0.1,0.1,0.1,0.2,0.1,0.4c0,0.2-0.3,0.5-0.8,0.5
		c-0.6,0-1.1-0.3-1.1-1.5v-2.7c0-1.3-0.5-1.9-1.6-1.9c-0.7,0-1.5,0.3-2,0.8v5.2H461.1z"/>
	<path fill="#FFFFFF" d="M477.5,337.1c0.1,0.1,0.2,0.3,0.2,0.5c0,0.3-0.6,0.7-1.5,0.7c-1.3,0-2.1-0.8-2.1-2.4v-3.7h-1
		c-0.2,0-0.3-0.1-0.3-0.3c0-0.2,0-0.4,0.1-0.6h1.2v-1.9c0.3-0.1,0.5-0.1,0.8-0.1c0.2,0,0.3,0.1,0.3,0.3v1.8h2.2
		c0.2,0,0.3,0.1,0.3,0.4v0.6h-2.5v3.8c0,0.9,0.5,1.3,1.3,1.3C476.8,337.3,477.2,337.2,477.5,337.1z"/>
	<path fill="#FFFFFF" d="M480,338.1c-0.3,0-0.4-0.1-0.4-0.3v-9.1c0.3-0.1,0.5-0.1,0.8-0.1c0.2,0,0.3,0.1,0.3,0.3v3.1
		c0.6-0.5,1.5-0.9,2.3-0.9c1.6,0,2.4,1.1,2.4,3v2.6c0,0.5,0.1,0.7,0.5,0.7h0.3c0.1,0.1,0.1,0.2,0.1,0.4c0,0.2-0.3,0.5-0.8,0.5
		c-0.6,0-1.1-0.3-1.1-1.5v-2.7c0-1.3-0.5-1.9-1.6-1.9c-0.7,0-1.5,0.3-2,0.8v5.2H480z"/>
	<path fill="#FFFFFF" d="M493.1,336.9c0.1,0.1,0.2,0.3,0.2,0.5c0,0.3-0.8,0.9-2,0.9c-2,0-3.4-1.5-3.4-3.6c0-2.2,1.6-3.6,3.4-3.6
		c1.6,0,2.7,1.1,2.7,2.5c0,0.4-0.1,0.7-0.2,1c-0.2,0.4-0.4,0.5-0.9,0.5h-3.9c0.1,1.4,1.2,2.2,2.4,2.2
		C492,337.3,492.6,337.2,493.1,336.9z M488.9,334.2h3.7c0.1-0.1,0.1-0.3,0.1-0.5c0-1-0.6-1.6-1.7-1.6
		C489.9,332,489.1,332.8,488.9,334.2z"/>
	<path fill="#FFFFFF" d="M505,336.9c0.1,0.1,0.2,0.3,0.2,0.5c0,0.3-0.8,0.9-2,0.9c-2,0-3.4-1.5-3.4-3.6c0-2.2,1.6-3.6,3.4-3.6
		c1.6,0,2.7,1.1,2.7,2.5c0,0.4-0.1,0.7-0.2,1c-0.2,0.4-0.4,0.5-0.9,0.5h-3.9c0.1,1.4,1.2,2.2,2.4,2.2
		C503.9,337.3,504.5,337.2,505,336.9z M500.8,334.2h3.7c0.1-0.1,0.1-0.3,0.1-0.5c0-1-0.6-1.6-1.7-1.6
		C501.9,332,501,332.8,500.8,334.2z"/>
	<path fill="#FFFFFF" d="M507.8,331.2c0.3-0.1,0.5-0.1,0.8-0.1c0.2,0,0.3,0.1,0.3,0.3v3.9c0,1.3,0.5,1.9,1.6,1.9
		c0.7,0,1.5-0.3,2-0.8v-5.3h0.8c0.3,0,0.4,0.1,0.4,0.3v6.6c0,1.7-1.1,3.2-3.5,3.2c-1.5,0-2.4-0.7-2.4-1.7c0-0.6,0.3-1.2,1.1-1.6
		c-0.8-0.5-1.2-1.4-1.2-2.7V331.2z M512.6,337.3c-0.6,0.5-1.5,0.9-2.3,0.9c-0.2,0-0.4,0-0.6-0.1c-0.5,0.3-0.7,0.8-0.7,1.2
		c0,0.5,0.5,0.9,1.3,0.9c1.4,0,2.3-0.8,2.3-2.2V337.3z"/>
	<path fill="#FFFFFF" d="M521.1,336.9c0.1,0.1,0.2,0.3,0.2,0.5c0,0.3-0.8,0.9-2,0.9c-2,0-3.4-1.5-3.4-3.6c0-2.2,1.6-3.6,3.4-3.6
		c1.6,0,2.7,1.1,2.7,2.5c0,0.4-0.1,0.7-0.2,1c-0.2,0.4-0.4,0.5-0.9,0.5H517c0.1,1.4,1.2,2.2,2.4,2.2
		C520,337.3,520.6,337.2,521.1,336.9z M517,334.2h3.7c0.1-0.1,0.1-0.3,0.1-0.5c0-1-0.6-1.6-1.7-1.6C518,332,517.1,332.8,517,334.2z"
		/>
	<path fill="#FFFFFF" d="M526,332c-0.8,0-1.3,0.4-1.3,1c0,0.6,0.5,1,1.7,1.3c1.5,0.4,2.1,1,2.1,2c0,1.2-0.9,1.9-2.5,1.9
		c-1.3,0-2.2-0.5-2.2-0.9c0-0.2,0.1-0.4,0.2-0.5c0.6,0.3,1.2,0.4,1.9,0.4c1,0,1.5-0.3,1.5-0.9c0-0.5-0.3-0.9-1.4-1.1
		c-1.7-0.4-2.4-1.1-2.4-2.2c0-1.2,1-2,2.4-2c1.1,0,2,0.5,2.4,1.2c0,0.1,0.1,0.2,0.1,0.2c0,0.1-0.1,0.2-0.2,0.3
		c-0.2,0.1-0.5,0.2-0.8,0.3C527.3,332.4,526.7,332,526,332z"/>
</g>
</svg>
