<?xml version="1.0" encoding="utf-8"?>
<!-- Generator: Adobe Illustrator 18.0.0, SVG Export Plug-In . SVG Version: 6.00 Build 0)  -->
<!DOCTYPE svg PUBLIC "-//W3C//DTD SVG 1.1//EN" "http://www.w3.org/Graphics/SVG/1.1/DTD/svg11.dtd">
<svg version="1.1" id="Слой_1" xmlns="http://www.w3.org/2000/svg" xmlns:xlink="http://www.w3.org/1999/xlink" x="0px" y="0px"
	 viewBox="0 0 841.9 595.3" enable-background="new 0 0 841.9 595.3" xml:space="preserve">
<path fill="#FFFFFF" d="M313.6,273.8c13.3,0,24.1,10.8,24.1,24.1s-10.8,24.1-24.1,24.1s-24.1-10.8-24.1-24.1
	C289.4,284.7,300.3,273.8,313.6,273.8 M313.6,263.8c-18.9,0-34.1,15.3-34.1,34.1c0,18.9,15.3,34.1,34.1,34.1
	c18.9,0,34.1-15.3,34.1-34.1C347.7,279.1,332.4,263.8,313.6,263.8L313.6,263.8z"/>
<path fill="#FFFFFF" d="M313.6,283.4c8,0,14.5,6.5,14.5,14.5c0,8-6.5,14.5-14.5,14.5s-14.5-6.5-14.5-14.5
	C299.1,289.9,305.6,283.4,313.6,283.4 M313.6,275.7c-12.3,0-22.2,9.9-22.2,22.2c0,12.3,9.9,22.2,22.2,22.2
	c12.3,0,22.2-9.9,22.2-22.2C335.8,285.7,325.8,275.7,313.6,275.7L313.6,275.7z"/>
<path fill="#FFFFFF" d="M380.6,295.4c-1.7,0-3.2,0.4-4.4,1.2c-1.2,0.8-2.2,1.9-2.9,3.2c-0.8,1.3-1.3,2.8-1.7,4.4
	c-0.3,1.7-0.5,3.3-0.5,5c0,1.1,0.1,2.1,0.4,3c0.2,0.9,0.6,1.7,1.2,2.3c0.5,0.6,1.3,1.2,2.2,1.5c0.9,0.4,2,0.5,3.3,0.5
	c1.3,0,2.5-0.2,3.8-0.5c1.3-0.3,2.4-0.6,3.2-0.9c0.4-0.2,0.6-0.2,0.7-0.1c0.1,0.1,0.2,0.2,0.3,0.4l1.1,2.3c0.2,0.5,0.1,0.8-0.5,1.1
	c-1.5,0.8-3.1,1.2-4.8,1.5c-1.7,0.2-3.2,0.3-4.5,0.3c-3.6,0-6.3-0.9-8.3-2.8c-2-1.9-3-4.7-3-8.5c0-2.7,0.3-5.2,1-7.4
	c0.7-2.2,1.6-4.2,2.8-5.8c1.2-1.6,2.7-2.9,4.4-3.8c1.7-0.9,3.7-1.3,5.9-1.3c1.5,0,3,0.1,4.6,0.4c1.6,0.3,3,0.8,4.1,1.5
	c0.4,0.2,0.4,0.6,0.2,1.1l-1,2.2c-0.2,0.5-0.6,0.6-1.1,0.3c-0.8-0.4-1.8-0.7-3-1C383,295.5,381.8,295.4,380.6,295.4z"/>
<path fill="#FFFFFF" d="M415.1,319.3c-0.1,0.4-0.2,0.6-0.3,0.7c-0.2,0.1-0.4,0.1-0.7,0.1H411c-0.3,0-0.5,0-0.7-0.1
	c-0.1-0.1-0.2-0.3-0.1-0.7l2.3-15.4c0.5-2.9,0.3-5.1-0.5-6.5c-0.8-1.4-2.6-2.1-5.3-2.1c-0.5,0-1.1,0-1.8,0.1c-0.6,0-1.3,0.1-1.9,0.2
	c-0.6,0.1-1.3,0.2-1.9,0.4c-0.6,0.1-1.2,0.3-1.7,0.5l-3.4,22.9c-0.1,0.4-0.2,0.6-0.3,0.7c-0.1,0.1-0.4,0.1-0.7,0.1h-3
	c-0.3,0-0.5,0-0.7-0.1c-0.2-0.1-0.2-0.3-0.1-0.7l5.6-37.8c0.1-0.4,0.2-0.6,0.3-0.7c0.2-0.1,0.4-0.1,0.7-0.1h3c0.3,0,0.5,0,0.7,0.1
	c0.1,0.1,0.2,0.3,0.1,0.7l-1.6,11c1.3-0.5,2.6-0.8,4.2-1c1.5-0.2,2.8-0.3,3.9-0.3c2.1,0,3.8,0.3,5.2,0.9c1.3,0.6,2.4,1.4,3.1,2.5
	c0.7,1.1,1.2,2.4,1.3,4c0.2,1.6,0.1,3.3-0.2,5.3L415.1,319.3z"/>
<path fill="#FFFFFF" d="M431.6,320.7c-3.6,0-6.3-0.9-8.1-2.6c-1.8-1.7-2.6-4.5-2.6-8.3c0-3.2,0.4-6,1.1-8.4c0.8-2.3,1.8-4.3,3.2-5.8
	c1.3-1.5,2.9-2.6,4.7-3.4s3.7-1.1,5.8-1.1c1.9,0,3.5,0.2,4.7,0.7c1.2,0.5,2.2,1.1,3,1.8c0.7,0.7,1.3,1.5,1.6,2.4
	c0.3,0.9,0.5,1.7,0.5,2.5c0,3.2-1.2,5.5-3.5,7c-2.4,1.5-6,2.2-10.9,2.2c-0.8,0-1.6,0-2.5-0.1c-0.9,0-1.8-0.1-2.7-0.3
	c-0.1,0.8-0.2,1.6-0.2,2.3c0,2.4,0.5,4.1,1.6,5.2s2.9,1.7,5.4,1.7c1.2,0,2.4-0.2,3.5-0.5c1.1-0.3,2.1-0.7,3-1.1
	c0.3-0.1,0.5-0.1,0.6-0.1c0.1,0,0.2,0.2,0.3,0.4l1.2,2.3c0.2,0.4,0,0.8-0.5,1.1c-1.4,0.8-3,1.3-4.6,1.6
	C434.6,320.6,433.1,320.7,431.6,320.7z M435.4,295.1c-2.5,0-4.5,0.7-6.1,2.2c-1.5,1.5-2.6,3.7-3,6.6c0.8,0.1,1.5,0.1,2.4,0.2
	c0.8,0,1.5,0.1,2.2,0.1c1.9,0,3.6-0.1,4.9-0.3c1.3-0.2,2.4-0.5,3.2-0.9c0.8-0.4,1.4-0.9,1.7-1.6c0.3-0.6,0.5-1.4,0.5-2.3
	c0-1-0.4-1.9-1.3-2.7C438.9,295.6,437.5,295.1,435.4,295.1z"/>
<path fill="#FFFFFF" d="M453.4,292.7c0.5-0.6,1.5-1,3-1.2c1.8-0.3,3.6-0.4,5.4-0.5c1.8-0.1,3.5-0.1,4.9-0.1c0.5,0,0.8,0.1,1,0.2
	c0.2,0.1,0.2,0.5,0.1,1l-0.5,2.8c-0.1,0.5-0.3,0.8-0.5,0.8c-0.2,0.1-0.5,0.1-0.8,0c-1.4-0.1-2.8-0.2-4.4-0.2c-1.6-0.1-3-0.2-4.4-0.2
	l-3.6,23.9c-0.1,0.4-0.2,0.6-0.3,0.7c-0.1,0.1-0.4,0.1-0.7,0.1h-3c-0.3,0-0.5,0-0.7-0.1c-0.1-0.1-0.2-0.3-0.1-0.7l3.5-23.7
	C452.5,294.3,452.8,293.4,453.4,292.7z"/>
<path fill="#FFFFFF" d="M492.1,320c-0.1,0.1-0.4,0.1-0.7,0.1h-3c-0.3,0-0.5,0-0.7-0.1c-0.1-0.1-0.2-0.3-0.1-0.7l2.2-14.3
	c0.2-1.6,0.3-3,0.3-4.2c-0.1-1.2-0.4-2.2-0.9-3c-0.6-0.8-1.4-1.4-2.5-1.8c-1.1-0.4-2.7-0.6-4.6-0.6c-0.4,0-1.1,0-2,0.1
	c-0.9,0.1-2,0.2-3.2,0.4l-3.5,23.6c-0.1,0.4-0.2,0.6-0.3,0.7c-0.1,0.1-0.4,0.1-0.7,0.1h-3c-0.3,0-0.5,0-0.7-0.1
	c-0.2-0.1-0.2-0.3-0.1-0.7l3.5-23.5c0.3-2.4,1.7-3.8,4.1-4.1c0.4-0.1,0.9-0.1,1.5-0.2c0.6-0.1,1.2-0.1,1.9-0.2
	c0.6-0.1,1.3-0.1,1.9-0.1c0.6,0,1.1,0,1.6,0c2.4,0,4.4,0.3,6,0.8c1.6,0.5,2.9,1.3,3.9,2.4c0.9,1.1,1.6,2.5,1.8,4.2
	c0.3,1.7,0.2,3.8-0.2,6.3l-2.1,14.5C492.3,319.7,492.2,319.9,492.1,320z"/>
<path fill="#FFFFFF" d="M502.9,319.3c-0.1,0.4-0.2,0.6-0.3,0.7c-0.1,0.1-0.4,0.1-0.7,0.1h-3c-0.3,0-0.5,0-0.7-0.1
	c-0.2-0.1-0.2-0.3-0.1-0.7l3.9-26.7c0.1-0.4,0.2-0.6,0.4-0.7c0.2-0.1,0.4-0.1,0.7-0.1h3c0.3,0,0.6,0,0.7,0.1
	c0.1,0.1,0.2,0.3,0.1,0.7L502.9,319.3z M506.2,281.1c0.8,0,1.5,0.3,2,0.8c0.5,0.5,0.8,1.2,0.8,2c0,1-0.4,1.8-1.2,2.5
	c-0.8,0.7-1.6,1.1-2.6,1.1c-0.8,0-1.4-0.3-1.9-0.8c-0.5-0.5-0.8-1.1-0.8-1.9c0-1,0.4-1.8,1.1-2.6S505.2,281.1,506.2,281.1z"/>
<path fill="#FFFFFF" d="M516.1,305.3l13.1-13.1c0.2-0.1,0.3-0.3,0.4-0.3c0.1-0.1,0.3-0.1,0.7-0.1h4.2c0.2,0,0.3,0.1,0.3,0.2
	c0,0.2,0,0.3-0.2,0.4l-8.7,8.7l6.3,18.4c0,0.1,0,0.2,0,0.4c0,0.1-0.2,0.2-0.4,0.2h-3.4c-0.6,0-1-0.2-1.1-0.6l-4.9-14.9l-7.6,7.3
	l-1.1,7.4c-0.1,0.4-0.2,0.6-0.3,0.7c-0.1,0.1-0.4,0.1-0.7,0.1h-3c-0.3,0-0.5,0-0.7-0.1c-0.2-0.1-0.2-0.3-0.1-0.7l5.6-37.8
	c0.1-0.4,0.2-0.6,0.3-0.7c0.2-0.1,0.4-0.1,0.7-0.1h3c0.3,0,0.5,0,0.7,0.1c0.1,0.1,0.2,0.3,0.1,0.7l-3.6,23.7L516.1,305.3z"/>
<path fill="#FFFFFF" d="M551.5,291.2c1.3,0,2.8,0.1,4.5,0.2c1.8,0.1,3.7,0.5,5.7,1c0.6,0.2,0.9,0.4,1,0.7c0.1,0.3,0.1,0.6,0,1
	c-0.6,4.2-1.3,8.2-1.8,12.1c-0.6,3.8-1.1,7.8-1.7,11.8c0,0.5-0.3,0.8-0.9,1.1c-0.8,0.3-1.7,0.6-2.7,0.8c-1,0.2-2,0.4-3,0.5
	c-1,0.1-2,0.2-3,0.3c-1,0.1-1.9,0.1-2.7,0.1c-2,0-3.8-0.3-5.2-0.8s-2.6-1.3-3.4-2.2c-0.9-0.9-1.5-2-1.9-3.3c-0.4-1.3-0.6-2.6-0.6-4
	c0-2.7,0.3-5.2,0.9-7.5c0.6-2.3,1.5-4.3,2.8-6.1c1.3-1.7,2.9-3.1,4.8-4.1C546.3,291.7,548.7,291.2,551.5,291.2z M548.3,316.6
	c0.4,0,0.9,0,1.5-0.1c0.6,0,1.1-0.1,1.7-0.2c0.6-0.1,1.1-0.2,1.7-0.3c0.5-0.1,1.1-0.2,1.5-0.4c0.5-3.4,0.9-6.7,1.4-9.9
	c0.5-3.2,1-6.4,1.5-9.7c-0.9-0.3-2-0.5-3.2-0.6c-1.2-0.1-2.2-0.2-3-0.2c-1.4,0-2.7,0.2-4,0.7c-1.3,0.5-2.4,1.3-3.4,2.4
	c-1,1.1-1.8,2.6-2.4,4.5c-0.6,1.9-0.9,4.2-0.9,7c0,2.2,0.6,3.8,1.7,5C543.6,316,545.6,316.6,548.3,316.6z"/>
<g>
	<path fill="#FFFFFF" d="M397.7,339.1h-0.6c-0.3,0-0.4-0.1-0.4-0.3v-7h-4.6v7.3h-0.6c-0.3,0-0.4-0.1-0.4-0.3v-7.9h6.2
		c0.3,0,0.4,0.1,0.4,0.3L397.7,339.1L397.7,339.1z"/>
	<path fill="#FFFFFF" d="M408.3,335c0,2.7-1.8,4.3-3.9,4.3s-3.9-1.6-3.9-4.3c0-2.7,1.8-4.3,3.9-4.3S408.3,332.3,408.3,335z
		 M407.3,335.1c0-2.3-1.4-3.5-3-3.5c-1.5,0-2.9,1.1-2.9,3.3c0,2.3,1.4,3.5,3,3.5C405.9,338.4,407.3,337.3,407.3,335.1z"/>
	<path fill="#FFFFFF" d="M409.5,338.7c0-0.2,0.1-0.4,0.2-0.5c0.3,0.1,0.6,0.2,0.8,0.2c0.6,0,0.9-0.3,1.1-2.1
		c0.2-1.5,0.3-3.4,0.3-5.5h5.6c0.2,0,0.3,0.1,0.3,0.3v7.8h-0.6c-0.3,0-0.4-0.1-0.4-0.3v-7H413c0,1.3-0.1,3.2-0.3,4.7
		c-0.3,2.2-0.9,2.8-2,2.8C410.1,339.3,409.5,339,409.5,338.7z"/>
	<path fill="#FFFFFF" d="M426.7,337.9c0.1,0.1,0.2,0.3,0.2,0.5c0,0.4-0.9,0.9-2.3,0.9c-2.3,0-4-1.8-4-4.3c0-2.6,1.8-4.2,3.9-4.2
		c1.9,0,3.2,1.3,3.2,3c0,0.4-0.1,0.8-0.2,1.1c-0.2,0.4-0.4,0.6-0.9,0.6h-5c0.2,1.9,1.5,3,3.1,3C425.4,338.4,426.1,338.2,426.7,337.9
		z M421.6,334.6h5c0.1-0.2,0.2-0.5,0.2-0.8c0-1.3-0.9-2.2-2.3-2.2C423,331.6,421.7,332.8,421.6,334.6z"/>
	<path fill="#FFFFFF" d="M432.1,335.4c-0.2,0-0.2-0.1-0.2-0.3s0-0.4,0.1-0.6h0.2c1.6,0,2.3-0.6,2.3-1.5c0-0.9-0.8-1.4-1.7-1.4
		c-0.9,0-1.7,0.4-2.1,1.3c-0.2,0-0.5-0.1-0.6-0.2c-0.3-0.2-0.3-0.4-0.2-0.6c0.6-0.8,1.6-1.4,2.8-1.4c1.6,0,2.8,0.9,2.8,2.3
		c0,0.9-0.6,1.6-1.5,2c1.1,0.3,1.7,1,1.7,2c0,1.3-1.1,2.3-3.1,2.3c-1.4,0-2.6-0.6-2.6-1c0-0.2,0-0.3,0.1-0.5
		c0.7,0.4,1.5,0.6,2.4,0.6c1.5,0,2.2-0.6,2.2-1.4c0-0.9-0.8-1.5-2.4-1.5L432.1,335.4L432.1,335.4z"/>
	<path fill="#FFFFFF" d="M444.4,339.1c-0.3,0-0.4-0.1-0.4-0.3v-3.5h-4.6v3.8h-0.6c-0.3,0-0.4-0.1-0.4-0.3v-7.9
		c0.2-0.1,0.5-0.1,0.7-0.1c0.2,0,0.3,0.1,0.3,0.3v3.3h4.6v-3.5h0.6c0.3,0,0.4,0.1,0.4,0.3v7.9L444.4,339.1L444.4,339.1z"/>
	<path fill="#FFFFFF" d="M455.5,335c0,2.7-1.8,4.3-3.9,4.3c-2.1,0-3.9-1.6-3.9-4.3c0-2.7,1.8-4.3,3.9-4.3
		C453.7,330.7,455.5,332.3,455.5,335z M454.5,335.1c0-2.3-1.4-3.5-3-3.5c-1.5,0-2.8,1.1-2.8,3.3c0,2.3,1.4,3.5,3,3.5
		C453.1,338.4,454.5,337.3,454.5,335.1z"/>
	<path fill="#FFFFFF" d="M468.6,330.9c0.3,0,0.4,0.1,0.4,0.3v7h0.5c0.3,0,0.4,0.1,0.4,0.3v2.4h-0.6c-0.3,0-0.4-0.1-0.4-0.3v-1.5
		h-5.6v1.8h-0.6c-0.3,0-0.4-0.1-0.4-0.3v-2.4h0.7c0.7-2.3,1.1-4.9,1.1-7.3H468.6L468.6,330.9z M468,338.2v-6.4h-3
		c-0.1,1.9-0.4,4.3-1,6.4H468z"/>
	<path fill="#FFFFFF" d="M471.5,338.7c0-0.2,0.1-0.4,0.2-0.5c0.3,0.1,0.6,0.2,0.8,0.2c0.6,0,0.9-0.3,1.1-2.1
		c0.2-1.5,0.3-3.4,0.3-5.5h5.6c0.2,0,0.3,0.1,0.3,0.3v7.8h-0.6c-0.3,0-0.4-0.1-0.4-0.3v-7H475c0,1.3-0.1,3.2-0.3,4.7
		c-0.3,2.2-0.9,2.8-2,2.8C472.1,339.3,471.5,339,471.5,338.7z"/>
	<path fill="#FFFFFF" d="M482.5,338.8c0-0.1,0-0.2,0.1-0.3h0.2c0.2,0,0.4-0.1,0.6-0.2c0.5-0.4,1.1-1,1.5-1.8
		c-1.3-0.4-2.1-1.3-2.1-2.7c0-1.8,1.3-2.9,3.4-2.9h2.3c0.3,0,0.4,0.1,0.4,0.3v7.9h-0.6c-0.3,0-0.4-0.1-0.4-0.3v-2.4
		c-0.5,0.2-1.2,0.2-1.7,0.2c-0.1,0-0.3,0-0.4,0c-0.5,1-1.2,1.9-1.9,2.4c-0.3,0.2-0.6,0.3-0.8,0.3
		C482.8,339.3,482.5,339.1,482.5,338.8z M487.9,331.8h-1.5c-1.6,0-2.6,0.6-2.6,2c0,1.3,1,2,2.6,2c0.5,0,1,0,1.5-0.2V331.8z"/>
	<path fill="#FFFFFF" d="M498.1,339.1h-0.6c-0.3,0-0.4-0.1-0.4-0.3v-7.9h5c0.2,0,0.3,0.1,0.3,0.4v0.5h-4.3L498.1,339.1L498.1,339.1z
		"/>
	<path fill="#FFFFFF" d="M502.8,338.7c0-0.2,0.1-0.4,0.2-0.5c0.3,0.1,0.6,0.2,0.8,0.2c0.6,0,0.9-0.3,1.1-2.1
		c0.2-1.5,0.3-3.4,0.3-5.5h5.6c0.2,0,0.3,0.1,0.3,0.3v7.8h-0.6c-0.3,0-0.4-0.1-0.4-0.3v-7h-3.9c0,1.3-0.1,3.2-0.3,4.7
		c-0.3,2.2-0.9,2.8-2,2.8C503.4,339.3,502.8,339,502.8,338.7z"/>
	<path fill="#FFFFFF" d="M521.2,338.4c0,0.1,0.1,0.2,0.1,0.4c0,0.2-0.3,0.5-0.7,0.5c-0.6,0-1.1-0.5-1.2-1.4
		c-0.6,0.9-1.6,1.5-2.9,1.5c-1.7,0-2.8-1.1-2.8-2.6c0-1.7,1.3-2.7,3.2-2.7c0.9,0,1.8,0.2,2.5,0.6v-0.8c0-1.5-1-2.1-2.6-2.1
		c-0.9,0-1.7,0.2-2.3,0.5c-0.1-0.1-0.2-0.3-0.2-0.5c0-0.4,1.1-0.9,2.7-0.9c2,0,3.3,1,3.3,3.1v3.7c0,0.6,0.2,0.9,0.6,0.9L521.2,338.4
		L521.2,338.4z M519.4,336.7v-1.3c-0.6-0.3-1.6-0.5-2.4-0.5c-1.4,0-2.3,0.7-2.3,1.7c0,1.1,0.9,1.7,1.9,1.7
		C517.7,338.4,518.7,337.9,519.4,336.7z"/>
	<path fill="#FFFFFF" d="M525.7,335.4c-0.2,0-0.2-0.1-0.2-0.3s0-0.4,0.1-0.6h0.2c1.6,0,2.3-0.6,2.3-1.5c0-0.9-0.8-1.4-1.7-1.4
		c-0.9,0-1.7,0.4-2.1,1.3c-0.2,0-0.5-0.1-0.6-0.2c-0.3-0.2-0.3-0.4-0.2-0.6c0.6-0.8,1.6-1.4,2.8-1.4c1.6,0,2.8,0.9,2.8,2.3
		c0,0.9-0.6,1.6-1.5,2c1.1,0.3,1.7,1,1.7,2c0,1.3-1.1,2.3-3.1,2.3c-1.4,0-2.6-0.6-2.6-1c0-0.2,0-0.3,0.1-0.5
		c0.7,0.4,1.5,0.6,2.4,0.6c1.5,0,2.2-0.6,2.2-1.4c0-0.9-0.8-1.5-2.4-1.5L525.7,335.4L525.7,335.4z"/>
</g>
<path fill="#109E32" d="M351.7,260.1c3.1,0,5.7,2.5,5.7,5.7c0,3.1-2.5,5.7-5.7,5.7s-5.7-2.5-5.7-5.7
	C346,262.7,348.5,260.1,351.7,260.1 M351.7,254.1c-6.5,0-11.7,5.2-11.7,11.7c0,6.5,5.2,11.7,11.7,11.7s11.7-5.2,11.7-11.7
	C363.3,259.4,358.1,254.1,351.7,254.1L351.7,254.1z"/>
</svg>
