<?xml version="1.0" encoding="UTF-8"?>
<svg width="158px" height="48px" viewBox="0 0 158 48" version="1.1" xmlns="http://www.w3.org/2000/svg" xmlns:xlink="http://www.w3.org/1999/xlink">
    <!-- Generator: Sketch 46.1 (44463) - http://www.bohemiancoding.com/sketch -->
    <title>Imported Layers</title>
    <desc>Created with Sketch.</desc>
    <defs></defs>
    <g id="Page-1" stroke="none" stroke-width="1" fill="none" fill-rule="evenodd">
        <g id="chernika-main-заглушка" transform="translate(-107.000000, -15.000000)">
            <g id="Imported-Layers" transform="translate(107.000000, 15.000000)">
                <path d="M58.98,23.224 C58.053,23.224 57.266,23.444 56.617,23.882 C55.969,24.321 55.438,24.897 55.027,25.609 C54.614,26.321 54.316,27.126 54.131,28.023 C53.946,28.921 53.853,29.828 53.853,30.745 C53.853,31.33 53.92,31.867 54.053,32.355 C54.187,32.842 54.404,33.262 54.702,33.612 C55.001,33.964 55.392,34.237 55.876,34.432 C56.359,34.627 56.962,34.725 57.683,34.725 C58.362,34.725 59.052,34.642 59.752,34.476 C60.452,34.311 61.029,34.14 61.482,33.964 C61.688,33.867 61.816,33.842 61.868,33.891 C61.919,33.94 61.976,34.013 62.038,34.11 L62.625,35.34 C62.748,35.594 62.666,35.798 62.378,35.954 C61.554,36.364 60.694,36.632 59.799,36.759 C58.903,36.885 58.084,36.949 57.343,36.949 C55.407,36.949 53.904,36.447 52.834,35.442 C51.763,34.438 51.227,32.901 51.227,30.833 C51.227,29.369 51.405,28.033 51.759,26.824 C52.113,25.614 52.623,24.57 53.288,23.692 C53.953,22.814 54.753,22.136 55.691,21.658 C56.628,21.18 57.693,20.941 58.888,20.941 C59.69,20.941 60.529,21.019 61.405,21.175 C62.28,21.332 63.026,21.595 63.644,21.965 C63.85,22.082 63.881,22.288 63.737,22.58 L63.181,23.779 C63.057,24.053 62.851,24.112 62.563,23.955 C62.11,23.741 61.564,23.565 60.926,23.429 C60.288,23.292 59.639,23.224 58.98,23.224" id="Fill-1" fill="#FFFFFF"></path>
                <path d="M77.694,36.188 C77.653,36.383 77.591,36.505 77.509,36.554 C77.427,36.603 77.303,36.627 77.138,36.627 L75.471,36.627 C75.305,36.627 75.187,36.603 75.115,36.554 C75.043,36.505 75.017,36.383 75.038,36.188 L76.273,27.848 C76.521,26.267 76.423,25.092 75.98,24.321 C75.537,23.551 74.575,23.165 73.092,23.165 C72.804,23.165 72.484,23.176 72.135,23.195 C71.784,23.214 71.434,23.249 71.084,23.297 C70.734,23.346 70.39,23.41 70.05,23.487 C69.71,23.565 69.406,23.663 69.138,23.779 L67.316,36.188 C67.275,36.383 67.218,36.505 67.146,36.554 C67.074,36.603 66.956,36.627 66.791,36.627 L65.154,36.627 C64.989,36.627 64.866,36.603 64.783,36.554 C64.701,36.505 64.68,36.383 64.722,36.188 L67.749,15.673 C67.79,15.478 67.851,15.356 67.934,15.308 C68.016,15.259 68.14,15.234 68.305,15.234 L69.942,15.234 C70.106,15.234 70.224,15.259 70.297,15.308 C70.369,15.356 70.384,15.478 70.343,15.673 L69.478,21.614 C70.158,21.361 70.909,21.185 71.733,21.087 C72.557,20.99 73.257,20.941 73.834,20.941 C74.966,20.941 75.898,21.102 76.629,21.424 C77.359,21.746 77.921,22.204 78.312,22.799 C78.703,23.395 78.94,24.116 79.022,24.965 C79.104,25.814 79.074,26.775 78.93,27.848 L77.694,36.188" id="Fill-2" fill="#FFFFFF"></path>
                <path d="M86.674,36.949 C84.718,36.949 83.261,36.481 82.304,35.544 C81.346,34.608 80.868,33.106 80.868,31.038 C80.868,29.282 81.073,27.77 81.485,26.502 C81.897,25.233 82.468,24.19 83.2,23.37 C83.93,22.55 84.785,21.941 85.763,21.541 C86.741,21.141 87.787,20.941 88.898,20.941 C89.928,20.941 90.777,21.073 91.446,21.336 C92.115,21.6 92.651,21.927 93.053,22.316 C93.454,22.707 93.737,23.136 93.902,23.604 C94.067,24.072 94.149,24.521 94.149,24.95 C94.149,26.687 93.51,27.95 92.234,28.74 C90.957,29.53 88.98,29.926 86.304,29.926 C85.871,29.926 85.418,29.915 84.945,29.896 C84.471,29.877 83.987,29.828 83.493,29.75 C83.431,30.199 83.4,30.608 83.4,30.979 C83.38,32.267 83.663,33.213 84.25,33.818 C84.837,34.423 85.809,34.725 87.169,34.725 C87.827,34.725 88.466,34.642 89.084,34.476 C89.701,34.311 90.247,34.12 90.721,33.906 C90.885,33.847 90.999,33.827 91.061,33.847 C91.122,33.867 91.184,33.934 91.246,34.052 L91.895,35.281 C91.997,35.515 91.904,35.71 91.617,35.866 C90.833,36.295 90.01,36.583 89.145,36.73 C88.28,36.876 87.457,36.949 86.674,36.949 L86.674,36.949 Z M88.713,23.077 C87.354,23.077 86.258,23.478 85.424,24.278 C84.59,25.077 84.038,26.277 83.771,27.877 C84.183,27.916 84.61,27.946 85.053,27.965 C85.495,27.984 85.891,27.994 86.242,27.994 C87.292,27.994 88.172,27.935 88.883,27.819 C89.593,27.701 90.164,27.53 90.597,27.306 C91.029,27.082 91.333,26.794 91.508,26.443 C91.683,26.091 91.771,25.682 91.771,25.214 C91.771,24.667 91.544,24.175 91.091,23.736 C90.638,23.297 89.845,23.077 88.713,23.077 L88.713,23.077 Z" id="Fill-3" fill="#FFFFFF"></path>
                <path d="M98.46,21.775 C98.748,21.434 99.283,21.215 100.066,21.117 C101.034,20.98 102.012,20.897 103,20.868 C103.989,20.839 104.874,20.824 105.656,20.824 C105.904,20.824 106.078,20.853 106.182,20.912 C106.285,20.97 106.305,21.156 106.243,21.468 L105.966,22.99 C105.904,23.263 105.816,23.414 105.703,23.444 C105.59,23.472 105.44,23.478 105.255,23.458 C104.514,23.419 103.715,23.375 102.861,23.326 C102.007,23.278 101.219,23.243 100.498,23.224 L98.522,36.188 C98.48,36.383 98.424,36.505 98.352,36.554 C98.28,36.603 98.161,36.627 97.997,36.627 L96.36,36.627 C96.194,36.627 96.076,36.603 96.005,36.554 C95.932,36.505 95.906,36.383 95.927,36.188 L97.842,23.341 C97.966,22.638 98.172,22.117 98.46,21.775" id="Fill-4" fill="#FFFFFF"></path>
                <path d="M119.477,36.554 C119.405,36.603 119.276,36.627 119.091,36.627 L117.454,36.627 C117.288,36.627 117.171,36.603 117.099,36.554 C117.027,36.505 117,36.383 117.021,36.187 L118.195,28.415 C118.318,27.536 118.365,26.768 118.334,26.113 C118.304,25.458 118.138,24.91 117.84,24.47 C117.542,24.031 117.083,23.703 116.465,23.488 C115.847,23.273 115.024,23.165 113.994,23.165 C113.768,23.165 113.413,23.18 112.929,23.209 C112.445,23.238 111.863,23.302 111.184,23.4 L109.3,36.187 C109.258,36.383 109.202,36.505 109.13,36.554 C109.058,36.603 108.939,36.627 108.775,36.627 L107.138,36.627 C106.972,36.627 106.849,36.603 106.767,36.554 C106.684,36.505 106.664,36.383 106.705,36.188 L108.589,23.429 C108.775,22.122 109.516,21.38 110.813,21.204 C111.04,21.165 111.312,21.131 111.631,21.102 C111.95,21.073 112.285,21.043 112.636,21.014 C112.986,20.985 113.325,20.966 113.655,20.956 C113.984,20.946 114.273,20.941 114.52,20.941 C115.817,20.941 116.908,21.078 117.794,21.351 C118.679,21.624 119.379,22.058 119.894,22.653 C120.409,23.249 120.738,24.014 120.883,24.95 C121.027,25.887 120.995,27.019 120.789,28.345 L119.647,36.188 C119.606,36.383 119.549,36.505 119.477,36.554" id="Fill-5" fill="#FFFFFF"></path>
                <path d="M125.344,36.188 C125.303,36.383 125.245,36.505 125.174,36.554 C125.101,36.603 124.973,36.627 124.788,36.627 L123.181,36.627 C123.017,36.627 122.888,36.603 122.796,36.554 C122.703,36.505 122.677,36.383 122.718,36.188 L124.85,21.702 C124.89,21.507 124.958,21.385 125.05,21.336 C125.143,21.288 125.272,21.263 125.436,21.263 L127.042,21.263 C127.228,21.263 127.356,21.288 127.429,21.336 C127.5,21.385 127.516,21.507 127.475,21.702 L125.344,36.188 L125.344,36.188 Z M127.136,15.439 C127.588,15.439 127.954,15.581 128.231,15.864 C128.51,16.147 128.649,16.503 128.649,16.932 C128.649,17.459 128.438,17.912 128.015,18.293 C127.593,18.673 127.125,18.863 126.61,18.863 C126.198,18.863 125.848,18.727 125.56,18.454 C125.272,18.181 125.128,17.839 125.128,17.429 C125.128,16.903 125.328,16.439 125.73,16.039 C126.131,15.64 126.6,15.439 127.136,15.439 L127.136,15.439 Z" id="Fill-6" fill="#FFFFFF"></path>
                <path d="M132.499,28.609 L139.604,21.497 C139.685,21.419 139.763,21.361 139.836,21.322 C139.907,21.283 140.025,21.263 140.191,21.263 L142.476,21.263 C142.579,21.263 142.64,21.307 142.662,21.395 C142.682,21.483 142.651,21.556 142.568,21.614 L137.873,26.326 L141.302,36.305 C141.322,36.364 141.322,36.432 141.302,36.51 C141.282,36.589 141.21,36.627 141.086,36.627 L139.233,36.627 C138.882,36.627 138.677,36.52 138.615,36.305 L135.959,28.199 L131.851,32.149 L131.264,36.188 C131.222,36.383 131.166,36.505 131.094,36.554 C131.022,36.603 130.903,36.627 130.739,36.627 L129.102,36.627 C128.937,36.627 128.813,36.603 128.731,36.554 C128.649,36.505 128.628,36.383 128.67,36.188 L131.696,15.673 C131.737,15.478 131.799,15.356 131.881,15.308 C131.964,15.259 132.087,15.234 132.252,15.234 L133.889,15.234 C134.054,15.234 134.172,15.259 134.244,15.308 C134.316,15.356 134.342,15.478 134.322,15.673 L132.376,28.55 L132.499,28.609" id="Fill-7" fill="#FFFFFF"></path>
                <path d="M151.704,20.941 C152.383,20.941 153.202,20.98 154.16,21.058 C155.117,21.136 156.141,21.312 157.232,21.585 C157.562,21.683 157.747,21.804 157.789,21.951 C157.83,22.097 157.83,22.278 157.789,22.492 C157.438,24.774 157.109,26.96 156.8,29.048 C156.491,31.135 156.193,33.272 155.905,35.456 C155.884,35.71 155.719,35.905 155.41,36.042 C154.958,36.218 154.463,36.364 153.928,36.481 C153.392,36.598 152.851,36.69 152.307,36.759 C151.76,36.827 151.219,36.876 150.684,36.906 C150.149,36.934 149.665,36.949 149.233,36.949 C148.121,36.949 147.179,36.803 146.407,36.51 C145.634,36.218 145.011,35.817 144.538,35.31 C144.064,34.803 143.724,34.208 143.518,33.525 C143.313,32.842 143.21,32.111 143.21,31.33 C143.21,29.867 143.369,28.506 143.689,27.247 C144.008,25.989 144.507,24.892 145.186,23.955 C145.866,23.019 146.74,22.283 147.812,21.746 C148.882,21.209 150.18,20.941 151.704,20.941 L151.704,20.941 Z M149.974,34.725 C150.2,34.725 150.463,34.715 150.762,34.696 C151.06,34.677 151.363,34.648 151.673,34.608 C151.982,34.57 152.285,34.522 152.584,34.463 C152.882,34.405 153.155,34.328 153.402,34.23 C153.65,32.366 153.901,30.57 154.16,28.843 C154.416,27.115 154.689,25.359 154.978,23.573 C154.463,23.418 153.892,23.311 153.263,23.253 C152.635,23.195 152.085,23.165 151.611,23.165 C150.87,23.165 150.155,23.296 149.465,23.558 C148.774,23.821 148.161,24.257 147.626,24.869 C147.091,25.48 146.659,26.291 146.329,27.3 C146,28.309 145.836,29.571 145.836,31.085 C145.836,32.27 146.149,33.173 146.778,33.794 C147.405,34.414 148.471,34.725 149.974,34.725 L149.974,34.725 Z" id="Fill-8" fill="#FFFFFF"></path>
                <path d="M68.387,46.97 L68.028,46.97 C67.874,46.97 67.823,46.927 67.823,46.808 L67.823,42.891 L65.265,42.891 L65.265,46.97 L64.906,46.97 C64.752,46.97 64.701,46.927 64.701,46.808 L64.701,42.403 L68.182,42.403 C68.327,42.403 68.387,42.454 68.387,42.574 L68.387,46.97" id="Fill-9" fill="#FFFFFF"></path>
                <path d="M74.276,44.686 C74.276,46.192 73.267,47.073 72.078,47.073 C70.889,47.073 69.88,46.192 69.88,44.686 C69.88,43.181 70.889,42.301 72.078,42.301 C73.267,42.301 74.276,43.181 74.276,44.686 L74.276,44.686 Z M73.712,44.738 C73.712,43.455 72.908,42.797 72.035,42.797 C71.205,42.797 70.444,43.395 70.444,44.635 C70.444,45.918 71.248,46.577 72.121,46.577 C72.942,46.577 73.712,45.978 73.712,44.738 L73.712,44.738 Z" id="Fill-10" fill="#FFFFFF"></path>
                <path d="M74.968,46.757 C74.968,46.671 75.003,46.56 75.054,46.483 C75.208,46.56 75.362,46.594 75.524,46.594 C75.849,46.594 76.037,46.406 76.166,45.448 C76.277,44.601 76.345,43.532 76.345,42.403 L79.459,42.403 C79.595,42.403 79.647,42.454 79.647,42.591 L79.647,46.97 L79.296,46.97 C79.142,46.97 79.082,46.927 79.082,46.799 L79.082,42.891 L76.91,42.891 C76.901,43.592 76.841,44.678 76.739,45.525 C76.593,46.731 76.26,47.073 75.644,47.073 C75.302,47.073 74.968,46.893 74.968,46.757" id="Fill-11" fill="#FFFFFF"></path>
                <path d="M84.575,46.303 C84.626,46.372 84.66,46.483 84.66,46.56 C84.66,46.757 84.13,47.073 83.351,47.073 C82.068,47.073 81.11,46.089 81.11,44.661 C81.11,43.207 82.137,42.301 83.3,42.301 C84.36,42.301 85.096,43.011 85.096,43.985 C85.096,44.199 85.053,44.43 84.985,44.61 C84.882,44.858 84.754,44.926 84.48,44.926 L81.683,44.926 C81.778,45.987 82.547,46.577 83.428,46.577 C83.822,46.577 84.241,46.491 84.575,46.303 L84.575,46.303 Z M81.683,44.439 L84.455,44.439 C84.506,44.319 84.54,44.165 84.54,44.002 C84.54,43.275 84.035,42.797 83.266,42.797 C82.462,42.797 81.752,43.429 81.683,44.439 L81.683,44.439 Z" id="Fill-12" fill="#FFFFFF"></path>
                <path d="M87.576,44.926 C87.482,44.926 87.439,44.875 87.439,44.764 C87.439,44.653 87.457,44.533 87.482,44.439 L87.602,44.439 C88.483,44.439 88.876,44.097 88.876,43.592 C88.876,43.096 88.431,42.797 87.901,42.797 C87.371,42.797 86.943,43.036 86.755,43.498 C86.636,43.489 86.499,43.438 86.421,43.395 C86.276,43.31 86.242,43.181 86.319,43.07 C86.627,42.617 87.225,42.301 87.901,42.301 C88.816,42.301 89.441,42.822 89.441,43.566 C89.441,44.088 89.116,44.481 88.611,44.661 C89.201,44.823 89.569,45.217 89.569,45.799 C89.569,46.525 88.979,47.073 87.815,47.073 C87.02,47.073 86.336,46.714 86.336,46.508 C86.336,46.423 86.362,46.32 86.413,46.244 C86.798,46.457 87.277,46.585 87.764,46.585 C88.594,46.585 89.004,46.244 89.004,45.781 C89.004,45.26 88.543,44.926 87.662,44.926 L87.576,44.926" id="Fill-13" fill="#FFFFFF"></path>
                <path d="M94.409,46.97 C94.255,46.97 94.204,46.927 94.204,46.808 L94.204,44.858 L91.647,44.858 L91.647,46.97 L91.287,46.97 C91.133,46.97 91.082,46.927 91.082,46.808 L91.082,42.42 C91.21,42.386 91.347,42.36 91.467,42.36 C91.595,42.36 91.647,42.412 91.647,42.506 L91.647,44.37 L94.204,44.37 L94.204,42.403 L94.563,42.403 C94.708,42.403 94.768,42.454 94.768,42.574 L94.768,46.97 L94.409,46.97" id="Fill-14" fill="#FFFFFF"></path>
                <path d="M100.644,44.686 C100.644,46.192 99.634,47.073 98.445,47.073 C97.256,47.073 96.247,46.192 96.247,44.686 C96.247,43.181 97.256,42.301 98.445,42.301 C99.634,42.301 100.644,43.181 100.644,44.686 L100.644,44.686 Z M100.079,44.738 C100.079,43.455 99.275,42.797 98.402,42.797 C97.573,42.797 96.812,43.395 96.812,44.635 C96.812,45.918 97.616,46.577 98.488,46.577 C99.309,46.577 100.079,45.978 100.079,44.738 L100.079,44.738 Z" id="Fill-15" fill="#FFFFFF"></path>
                <path d="M107.945,42.403 C108.091,42.403 108.151,42.454 108.151,42.574 L108.151,46.483 L108.433,46.483 C108.578,46.483 108.638,46.534 108.638,46.654 L108.638,47.98 L108.279,47.98 C108.125,47.98 108.074,47.929 108.074,47.809 L108.074,46.97 L104.926,46.97 L104.926,47.98 L104.567,47.98 C104.413,47.98 104.362,47.929 104.362,47.809 L104.362,46.483 L104.755,46.483 C105.157,45.174 105.354,43.754 105.379,42.403 L107.945,42.403 L107.945,42.403 Z M107.586,46.483 L107.586,42.891 L105.91,42.891 C105.859,43.925 105.679,45.277 105.337,46.483 L107.586,46.483 L107.586,46.483 Z" id="Fill-16" fill="#FFFFFF"></path>
                <path d="M109.58,46.757 C109.58,46.671 109.614,46.56 109.665,46.483 C109.82,46.56 109.973,46.594 110.136,46.594 C110.461,46.594 110.649,46.406 110.778,45.448 C110.889,44.601 110.957,43.532 110.957,42.403 L114.071,42.403 C114.207,42.403 114.259,42.454 114.259,42.591 L114.259,46.97 L113.908,46.97 C113.754,46.97 113.694,46.927 113.694,46.799 L113.694,42.891 L111.522,42.891 C111.513,43.592 111.453,44.678 111.351,45.525 C111.205,46.731 110.871,47.073 110.256,47.073 C109.913,47.073 109.58,46.893 109.58,46.757" id="Fill-17" fill="#FFFFFF"></path>
                <path d="M115.714,46.808 C115.714,46.748 115.723,46.671 115.748,46.62 L115.859,46.62 C115.953,46.62 116.056,46.585 116.168,46.508 C116.458,46.303 116.766,45.961 117.031,45.482 C116.33,45.286 115.876,44.781 115.876,43.994 C115.876,42.993 116.621,42.403 117.792,42.403 L119.084,42.403 C119.238,42.403 119.289,42.454 119.289,42.574 L119.289,46.97 L118.93,46.97 C118.785,46.97 118.725,46.927 118.725,46.808 L118.725,45.456 C118.434,45.551 118.075,45.585 117.784,45.585 C117.707,45.585 117.639,45.585 117.57,45.576 C117.279,46.141 116.92,46.611 116.535,46.91 C116.381,47.03 116.227,47.073 116.09,47.073 C115.868,47.073 115.714,46.954 115.714,46.808 L115.714,46.808 Z M118.725,42.891 L117.903,42.891 C116.997,42.891 116.441,43.224 116.441,43.994 C116.441,44.738 116.989,45.089 117.887,45.089 C118.169,45.089 118.468,45.063 118.725,44.995 L118.725,42.891 L118.725,42.891 Z" id="Fill-18" fill="#FFFFFF"></path>
                <path d="M124.393,46.97 L124.033,46.97 C123.88,46.97 123.828,46.927 123.828,46.808 L123.828,42.403 L126.625,42.403 C126.745,42.403 126.788,42.463 126.788,42.617 L126.788,42.891 L124.393,42.891 L124.393,46.97" id="Fill-19" fill="#FFFFFF"></path>
                <path d="M127.017,46.757 C127.017,46.671 127.051,46.56 127.102,46.483 C127.257,46.56 127.41,46.594 127.573,46.594 C127.898,46.594 128.086,46.406 128.215,45.448 C128.326,44.601 128.394,43.532 128.394,42.403 L131.508,42.403 C131.644,42.403 131.696,42.454 131.696,42.591 L131.696,46.97 L131.345,46.97 C131.191,46.97 131.131,46.927 131.131,46.799 L131.131,42.891 L128.959,42.891 C128.95,43.592 128.89,44.678 128.788,45.525 C128.642,46.731 128.308,47.073 127.693,47.073 C127.35,47.073 127.017,46.893 127.017,46.757" id="Fill-20" fill="#FFFFFF"></path>
                <path d="M137.338,46.568 C137.355,46.628 137.372,46.697 137.372,46.774 C137.372,46.893 137.209,47.03 136.961,47.03 C136.611,47.03 136.346,46.748 136.311,46.252 C135.987,46.748 135.422,47.073 134.686,47.073 C133.737,47.073 133.121,46.483 133.121,45.636 C133.121,44.704 133.831,44.157 134.909,44.157 C135.396,44.157 135.901,44.268 136.303,44.465 L136.303,43.994 C136.303,43.173 135.738,42.797 134.874,42.797 C134.396,42.797 133.951,42.891 133.591,43.087 C133.54,43.027 133.506,42.916 133.506,42.831 C133.506,42.625 134.147,42.301 134.994,42.301 C136.123,42.301 136.859,42.882 136.859,44.028 L136.859,46.089 C136.859,46.449 136.979,46.568 137.184,46.568 L137.338,46.568 L137.338,46.568 Z M136.303,45.636 L136.303,44.909 C135.943,44.746 135.396,44.653 134.96,44.653 C134.156,44.653 133.686,45.029 133.686,45.619 C133.686,46.244 134.182,46.585 134.764,46.585 C135.354,46.585 135.935,46.295 136.303,45.636 L136.303,45.636 Z" id="Fill-21" fill="#FFFFFF"></path>
                <path d="M139.831,44.926 C139.738,44.926 139.695,44.875 139.695,44.764 C139.695,44.653 139.712,44.533 139.738,44.439 L139.857,44.439 C140.738,44.439 141.132,44.097 141.132,43.592 C141.132,43.096 140.687,42.797 140.156,42.797 C139.626,42.797 139.198,43.036 139.01,43.498 C138.891,43.489 138.754,43.438 138.677,43.395 C138.532,43.31 138.497,43.181 138.574,43.07 C138.882,42.617 139.481,42.301 140.156,42.301 C141.072,42.301 141.696,42.822 141.696,43.566 C141.696,44.088 141.371,44.481 140.866,44.661 C141.457,44.823 141.824,45.217 141.824,45.799 C141.824,46.525 141.234,47.073 140.071,47.073 C139.276,47.073 138.592,46.714 138.592,46.508 C138.592,46.423 138.617,46.32 138.668,46.244 C139.053,46.457 139.532,46.585 140.019,46.585 C140.849,46.585 141.26,46.244 141.26,45.781 C141.26,45.26 140.798,44.926 139.917,44.926 L139.831,44.926" id="Fill-22" fill="#FFFFFF"></path>
                <path d="M21.396,5.982 C9.798,5.982 0.397,15.383 0.397,26.981 C0.397,38.578 9.798,47.98 21.396,47.98 C32.993,47.98 42.395,38.578 42.395,26.981 C42.395,15.383 32.993,5.982 21.396,5.982 L21.396,5.982 Z M21.396,41.831 C13.207,41.831 6.546,35.169 6.546,26.981 C6.546,18.793 13.207,12.131 21.396,12.131 C29.585,12.131 36.246,18.793 36.246,26.981 C36.246,35.169 29.585,41.831 21.396,41.831 L21.396,41.831 Z" id="Fill-23" fill="#FFFFFF"></path>
                <path d="M44.806,0.027 C40.838,0.027 37.622,3.244 37.622,7.212 C37.622,11.179 40.838,14.396 44.806,14.396 C48.775,14.396 51.991,11.179 51.991,7.212 C51.991,3.244 48.775,0.027 44.806,0.027 L44.806,0.027 Z M44.806,10.706 C42.879,10.706 41.311,9.139 41.311,7.212 C41.311,5.284 42.879,3.717 44.806,3.717 C46.733,3.717 48.301,5.284 48.301,7.212 C48.301,9.139 46.733,10.706 44.806,10.706 L44.806,10.706 Z" id="Fill-24" fill="#009034"></path>
                <path d="M21.396,13.3 C13.857,13.3 7.745,19.411 7.745,26.95 C7.745,34.489 13.857,40.601 21.396,40.601 C28.935,40.601 35.047,34.489 35.047,26.95 C35.047,19.411 28.935,13.3 21.396,13.3 L21.396,13.3 Z M21.396,35.882 C16.471,35.882 12.464,31.875 12.464,26.95 C12.464,22.026 16.471,18.019 21.396,18.019 C26.321,18.019 30.328,22.026 30.328,26.95 C30.328,31.875 26.321,35.882 21.396,35.882 L21.396,35.882 Z" id="Fill-25" fill="#FFFFFF"></path>
            </g>
        </g>
    </g>
</svg>