<svg width="290" height="100" xmlns="http://www.w3.org/2000/svg">

 <g>
  <title>background</title>
  <rect fill="none" id="canvas_background" height="102" width="292" y="-1" x="-1"/>
 </g>
 <g>
  <title>Layer 1</title>
  <path id="svg_1" d="m38.6,23.8c13.3,0 24.1,10.8 24.1,24.1s-10.8,24.1 -24.1,24.1s-24.1,-10.8 -24.1,-24.1c-0.1,-13.2 10.8,-24.1 24.1,-24.1m0,-10c-18.9,0 -34.1,15.3 -34.1,34.1c0,18.9 15.3,34.1 34.1,34.1c18.9,0 34.1,-15.3 34.1,-34.1c0,-18.8 -15.3,-34.1 -34.1,-34.1l0,0z" fill="#FFFFFF"/>
  <path id="svg_2" d="m76.7,10.1c3.1,0 5.7,2.5 5.7,5.7c0,3.1 -2.5,5.7 -5.7,5.7s-5.7,-2.5 -5.7,-5.7c0,-3.1 2.5,-5.7 5.7,-5.7m0,-6c-6.5,0 -11.7,5.2 -11.7,11.7c0,6.5 5.2,11.7 11.7,11.7s11.7,-5.2 11.7,-11.7c-0.1,-6.4 -5.3,-11.7 -11.7,-11.7l0,0z" fill="#109E32"/>
  <path id="svg_3" d="m38.6,33.4c8,0 14.5,6.5 14.5,14.5c0,8 -6.5,14.5 -14.5,14.5s-14.5,-6.5 -14.5,-14.5c0,-8 6.5,-14.5 14.5,-14.5m0,-7.7c-12.3,0 -22.2,9.9 -22.2,22.2c0,12.3 9.9,22.2 22.2,22.2c12.3,0 22.2,-9.9 22.2,-22.2c0,-12.2 -10,-22.2 -22.2,-22.2l0,0z" fill="#FFFFFF"/>
  <path id="svg_4" d="m105.6,45.4c-1.7,0 -3.2,0.4 -4.4,1.2c-1.2,0.8 -2.2,1.9 -2.9,3.2c-0.8,1.3 -1.3,2.8 -1.7,4.4c-0.3,1.7 -0.5,3.3 -0.5,5c0,1.1 0.1,2.1 0.4,3c0.2,0.9 0.6,1.7 1.2,2.3c0.5,0.6 1.3,1.2 2.2,1.5c0.9,0.4 2,0.5 3.3,0.5c1.3,0 2.5,-0.2 3.8,-0.5c1.3,-0.3 2.4,-0.6 3.2,-0.9c0.4,-0.2 0.6,-0.2 0.7,-0.1c0.1,0.1 0.2,0.2 0.3,0.4l1.1,2.3c0.2,0.5 0.1,0.8 -0.5,1.1c-1.5,0.8 -3.1,1.2 -4.8,1.5c-1.7,0.2 -3.2,0.3 -4.5,0.3c-3.6,0 -6.3,-0.9 -8.3,-2.8c-2,-1.9 -3,-4.7 -3,-8.5c0,-2.7 0.3,-5.2 1,-7.4c0.7,-2.2 1.6,-4.2 2.8,-5.8c1.2,-1.6 2.7,-2.9 4.4,-3.8c1.7,-0.9 3.7,-1.3 5.9,-1.3c1.5,0 3,0.1 4.6,0.4c1.6,0.3 3,0.8 4.1,1.5c0.4,0.2 0.4,0.6 0.2,1.1l-1,2.2c-0.2,0.5 -0.6,0.6 -1.1,0.3c-0.8,-0.4 -1.8,-0.7 -3,-1c-1.1,0 -2.3,-0.1 -3.5,-0.1z" fill="#FFFFFF"/>
  <path id="svg_5" d="m140.1,69.3c-0.1,0.4 -0.2,0.6 -0.3,0.7c-0.2,0.1 -0.4,0.1 -0.7,0.1l-3.1,0c-0.3,0 -0.5,0 -0.7,-0.1c-0.1,-0.1 -0.2,-0.3 -0.1,-0.7l2.3,-15.4c0.5,-2.9 0.3,-5.1 -0.5,-6.5c-0.8,-1.4 -2.6,-2.1 -5.3,-2.1c-0.5,0 -1.1,0 -1.8,0.1c-0.6,0 -1.3,0.1 -1.9,0.2c-0.6,0.1 -1.3,0.2 -1.9,0.4c-0.6,0.1 -1.2,0.3 -1.7,0.5l-3.4,22.9c-0.1,0.4 -0.2,0.6 -0.3,0.7c-0.1,0.1 -0.4,0.1 -0.7,0.1l-3,0c-0.3,0 -0.5,0 -0.7,-0.1c-0.2,-0.1 -0.2,-0.3 -0.1,-0.7l5.6,-37.8c0.1,-0.4 0.2,-0.6 0.3,-0.7c0.2,-0.1 0.4,-0.1 0.7,-0.1l3,0c0.3,0 0.5,0 0.7,0.1c0.1,0.1 0.2,0.3 0.1,0.7l-1.6,11c1.3,-0.5 2.6,-0.8 4.2,-1c1.5,-0.2 2.8,-0.3 3.9,-0.3c2.1,0 3.8,0.3 5.2,0.9c1.3,0.6 2.4,1.4 3.1,2.5c0.7,1.1 1.2,2.4 1.3,4c0.2,1.6 0.1,3.3 -0.2,5.3l-2.4,15.3z" fill="#FFFFFF"/>
  <path id="svg_6" d="m156.6,70.7c-3.6,0 -6.3,-0.9 -8.1,-2.6c-1.8,-1.7 -2.6,-4.5 -2.6,-8.3c0,-3.2 0.4,-6 1.1,-8.4c0.8,-2.3 1.8,-4.3 3.2,-5.8c1.3,-1.5 2.9,-2.6 4.7,-3.4s3.7,-1.1 5.8,-1.1c1.9,0 3.5,0.2 4.7,0.7c1.2,0.5 2.2,1.1 3,1.8c0.7,0.7 1.3,1.5 1.6,2.4c0.3,0.9 0.5,1.7 0.5,2.5c0,3.2 -1.2,5.5 -3.5,7c-2.4,1.5 -6,2.2 -10.9,2.2c-0.8,0 -1.6,0 -2.5,-0.1c-0.9,0 -1.8,-0.1 -2.7,-0.3c-0.1,0.8 -0.2,1.6 -0.2,2.3c0,2.4 0.5,4.1 1.6,5.2s2.9,1.7 5.4,1.7c1.2,0 2.4,-0.2 3.5,-0.5c1.1,-0.3 2.1,-0.7 3,-1.1c0.3,-0.1 0.5,-0.1 0.6,-0.1c0.1,0 0.2,0.2 0.3,0.4l1.2,2.3c0.2,0.4 0,0.8 -0.5,1.1c-1.4,0.8 -3,1.3 -4.6,1.6c-1.6,0.4 -3.1,0.5 -4.6,0.5zm3.8,-25.6c-2.5,0 -4.5,0.7 -6.1,2.2c-1.5,1.5 -2.6,3.7 -3,6.6c0.8,0.1 1.5,0.1 2.4,0.2c0.8,0 1.5,0.1 2.2,0.1c1.9,0 3.6,-0.1 4.9,-0.3c1.3,-0.2 2.4,-0.5 3.2,-0.9c0.8,-0.4 1.4,-0.9 1.7,-1.6c0.3,-0.6 0.5,-1.4 0.5,-2.3c0,-1 -0.4,-1.9 -1.3,-2.7c-1,-0.8 -2.4,-1.3 -4.5,-1.3z" fill="#FFFFFF"/>
  <path id="svg_7" d="m178.4,42.7c0.5,-0.6 1.5,-1 3,-1.2c1.8,-0.3 3.6,-0.4 5.4,-0.5c1.8,-0.1 3.5,-0.1 4.9,-0.1c0.5,0 0.8,0.1 1,0.2c0.2,0.1 0.2,0.5 0.1,1l-0.5,2.8c-0.1,0.5 -0.3,0.8 -0.5,0.8c-0.2,0.1 -0.5,0.1 -0.8,0c-1.4,-0.1 -2.8,-0.2 -4.4,-0.2c-1.6,-0.1 -3,-0.2 -4.4,-0.2l-3.6,23.9c-0.1,0.4 -0.2,0.6 -0.3,0.7c-0.1,0.1 -0.4,0.1 -0.7,0.1l-3,0c-0.3,0 -0.5,0 -0.7,-0.1c-0.1,-0.1 -0.2,-0.3 -0.1,-0.7l3.5,-23.7c0.2,-1.2 0.5,-2.1 1.1,-2.8z" fill="#FFFFFF"/>
  <path id="svg_8" d="m217.1,70c-0.1,0.1 -0.4,0.1 -0.7,0.1l-3,0c-0.3,0 -0.5,0 -0.7,-0.1c-0.1,-0.1 -0.2,-0.3 -0.1,-0.7l2.2,-14.3c0.2,-1.6 0.3,-3 0.3,-4.2c-0.1,-1.2 -0.4,-2.2 -0.9,-3c-0.6,-0.8 -1.4,-1.4 -2.5,-1.8c-1.1,-0.4 -2.7,-0.6 -4.6,-0.6c-0.4,0 -1.1,0 -2,0.1c-0.9,0.1 -2,0.2 -3.2,0.4l-3.5,23.6c-0.1,0.4 -0.2,0.6 -0.3,0.7c-0.1,0.1 -0.4,0.1 -0.7,0.1l-3,0c-0.3,0 -0.5,0 -0.7,-0.1c-0.2,-0.1 -0.2,-0.3 -0.1,-0.7l3.5,-23.5c0.3,-2.4 1.7,-3.8 4.1,-4.1c0.4,-0.1 0.9,-0.1 1.5,-0.2c0.6,-0.1 1.2,-0.1 1.9,-0.2c0.6,-0.1 1.3,-0.1 1.9,-0.1c0.6,0 1.1,0 1.6,0c2.4,0 4.4,0.3 6,0.8c1.6,0.5 2.9,1.3 3.9,2.4c0.9,1.1 1.6,2.5 1.8,4.2c0.3,1.7 0.2,3.8 -0.2,6.3l-2.1,14.5c-0.2,0.1 -0.3,0.3 -0.4,0.4z" fill="#FFFFFF"/>
  <path id="svg_9" d="m227.9,69.3c-0.1,0.4 -0.2,0.6 -0.3,0.7c-0.1,0.1 -0.4,0.1 -0.7,0.1l-3,0c-0.3,0 -0.5,0 -0.7,-0.1c-0.2,-0.1 -0.2,-0.3 -0.1,-0.7l3.9,-26.7c0.1,-0.4 0.2,-0.6 0.4,-0.7c0.2,-0.1 0.4,-0.1 0.7,-0.1l3,0c0.3,0 0.6,0 0.7,0.1c0.1,0.1 0.2,0.3 0.1,0.7l-4,26.7zm3.3,-38.2c0.8,0 1.5,0.3 2,0.8c0.5,0.5 0.8,1.2 0.8,2c0,1 -0.4,1.8 -1.2,2.5c-0.8,0.7 -1.6,1.1 -2.6,1.1c-0.8,0 -1.4,-0.3 -1.9,-0.8c-0.5,-0.5 -0.8,-1.1 -0.8,-1.9c0,-1 0.4,-1.8 1.1,-2.6s1.6,-1.1 2.6,-1.1z" fill="#FFFFFF"/>
  <path id="svg_10" d="m241.1,55.3l13.1,-13.1c0.2,-0.1 0.3,-0.3 0.4,-0.3c0.1,-0.1 0.3,-0.1 0.7,-0.1l4.2,0c0.2,0 0.3,0.1 0.3,0.2c0,0.2 0,0.3 -0.2,0.4l-8.7,8.7l6.3,18.4c0,0.1 0,0.2 0,0.4c0,0.1 -0.2,0.2 -0.4,0.2l-3.4,0c-0.6,0 -1,-0.2 -1.1,-0.6l-4.9,-14.9l-7.6,7.3l-1.1,7.4c-0.1,0.4 -0.2,0.6 -0.3,0.7c-0.1,0.1 -0.4,0.1 -0.7,0.1l-3,0c-0.3,0 -0.5,0 -0.7,-0.1c-0.2,-0.1 -0.2,-0.3 -0.1,-0.7l5.6,-37.8c0.1,-0.4 0.2,-0.6 0.3,-0.7c0.2,-0.1 0.4,-0.1 0.7,-0.1l3,0c0.3,0 0.5,0 0.7,0.1c0.1,0.1 0.2,0.3 0.1,0.7l-3.6,23.7l0.4,0.1z" fill="#FFFFFF"/>
  <path id="svg_11" d="m276.5,41.2c1.3,0 2.8,0.1 4.5,0.2c1.8,0.1 3.7,0.5 5.7,1c0.6,0.2 0.9,0.4 1,0.7c0.1,0.3 0.1,0.6 0,1c-0.6,4.2 -1.3,8.2 -1.8,12.1c-0.6,3.8 -1.1,7.8 -1.7,11.8c0,0.5 -0.3,0.8 -0.9,1.1c-0.8,0.3 -1.7,0.6 -2.7,0.8c-1,0.2 -2,0.4 -3,0.5c-1,0.1 -2,0.2 -3,0.3c-1,0.1 -1.9,0.1 -2.7,0.1c-2,0 -3.8,-0.3 -5.2,-0.8s-2.6,-1.3 -3.4,-2.2c-0.9,-0.9 -1.5,-2 -1.9,-3.3c-0.4,-1.3 -0.6,-2.6 -0.6,-4c0,-2.7 0.3,-5.2 0.9,-7.5c0.6,-2.3 1.5,-4.3 2.8,-6.1c1.3,-1.7 2.9,-3.1 4.8,-4.1c2,-1.1 4.4,-1.6 7.2,-1.6zm-3.2,25.4c0.4,0 0.9,0 1.5,-0.1c0.6,0 1.1,-0.1 1.7,-0.2c0.6,-0.1 1.1,-0.2 1.7,-0.3c0.5,-0.1 1.1,-0.2 1.5,-0.4c0.5,-3.4 0.9,-6.7 1.4,-9.9c0.5,-3.2 1,-6.4 1.5,-9.7c-0.9,-0.3 -2,-0.5 -3.2,-0.6c-1.2,-0.1 -2.2,-0.2 -3,-0.2c-1.4,0 -2.7,0.2 -4,0.7c-1.3,0.5 -2.4,1.3 -3.4,2.4c-1,1.1 -1.8,2.6 -2.4,4.5c-0.6,1.9 -0.9,4.2 -0.9,7c0,2.2 0.6,3.8 1.7,5c1.2,1.2 3.2,1.8 5.9,1.8z" fill="#FFFFFF"/>
  <g id="svg_12">
   <path id="svg_13" d="m116.7,90.8l-0.7,0c-0.3,0 -0.4,-0.1 -0.4,-0.3l0,-9.3c0.3,-0.1 0.5,-0.1 0.8,-0.1c0.2,0 0.3,0.1 0.3,0.3l0,1c0.5,-0.8 1.3,-1.3 2.4,-1.3c1.7,0 2.9,1.2 2.9,3.3c0,2.3 -1.5,3.9 -3.4,3.9c-0.8,0 -1.4,-0.2 -1.9,-0.7l0,3.2zm0,-7l0,2.8c0.5,0.5 1.1,0.7 1.8,0.7c1.4,0 2.4,-1.2 2.4,-2.9c0,-1.5 -0.8,-2.4 -2,-2.4c-0.8,0 -1.7,0.6 -2.2,1.8z" fill="#FFFFFF"/>
   <path id="svg_14" d="m125.8,88.2c-1.1,0 -1.6,-0.7 -1.6,-1.9l0,-7.5c0.3,-0.1 0.5,-0.1 0.8,-0.1s0.3,0.1 0.3,0.3l0,7.4c0,0.7 0.3,1 0.8,1c0.2,0 0.5,-0.1 0.7,-0.1c0.1,0.1 0.1,0.3 0.1,0.5c0.1,0 -0.4,0.4 -1.1,0.4z" fill="#FFFFFF"/>
   <path id="svg_15" d="m133.3,86.9c0.1,0.1 0.2,0.3 0.2,0.5c0,0.3 -0.8,0.9 -2,0.9c-2,0 -3.4,-1.5 -3.4,-3.6c0,-2.2 1.6,-3.6 3.4,-3.6c1.6,0 2.7,1.1 2.7,2.5c0,0.4 -0.1,0.7 -0.2,1c-0.2,0.4 -0.4,0.5 -0.9,0.5l-3.9,0c0.1,1.4 1.2,2.2 2.4,2.2c0.6,0 1.2,-0.1 1.7,-0.4zm-4.1,-2.7l3.7,0c0.1,-0.1 0.1,-0.3 0.1,-0.5c0,-1 -0.6,-1.6 -1.7,-1.6c-1.1,-0.1 -2,0.7 -2.1,2.1z" fill="#FFFFFF"/>
   <path id="svg_16" d="m142.2,87.3c0,0.1 0.1,0.2 0.1,0.4c0,0.2 -0.3,0.5 -0.8,0.5c-0.5,0 -1,-0.4 -1.1,-1.1c-0.5,0.7 -1.3,1.2 -2.3,1.2c-1.4,0 -2.3,-0.9 -2.3,-2.2c0,-1.4 1.1,-2.2 2.7,-2.2c0.7,0 1.4,0.2 1.9,0.4l0,-0.6c0,-1.1 -0.7,-1.7 -2,-1.7c-0.6,0 -1.3,0.1 -1.8,0.4c-0.1,-0.1 -0.2,-0.3 -0.2,-0.5c0,-0.4 1,-0.9 2.3,-0.9c1.8,0 2.9,0.9 2.9,2.7l0,2.8c0,0.5 0.2,0.7 0.5,0.7l0.1,0l0,0.1zm-1.9,-1.3l0,-0.9c-0.4,-0.2 -1.2,-0.3 -1.7,-0.3c-1.1,0 -1.8,0.5 -1.8,1.2c0,0.8 0.6,1.2 1.4,1.2c0.9,0.1 1.7,-0.3 2.1,-1.2z" fill="#FFFFFF"/>
   <path id="svg_17" d="m146.1,82c-0.8,0 -1.3,0.4 -1.3,1c0,0.6 0.5,1 1.7,1.3c1.5,0.4 2.1,1 2.1,2c0,1.2 -0.9,1.9 -2.5,1.9c-1.3,0 -2.2,-0.5 -2.2,-0.9c0,-0.2 0.1,-0.4 0.2,-0.5c0.6,0.3 1.2,0.4 1.9,0.4c1,0 1.5,-0.3 1.5,-0.9c0,-0.5 -0.3,-0.9 -1.4,-1.1c-1.7,-0.4 -2.4,-1.1 -2.4,-2.2c0,-1.2 1,-2 2.4,-2c1.1,0 2,0.5 2.4,1.2c0,0.1 0.1,0.2 0.1,0.2c0,0.1 -0.1,0.2 -0.2,0.3c-0.2,0.1 -0.5,0.2 -0.8,0.3c-0.3,-0.6 -0.9,-1 -1.5,-1z" fill="#FFFFFF"/>
   <path id="svg_18" d="m156.8,87.3c0,0.1 0.1,0.2 0.1,0.4c0,0.2 -0.3,0.5 -0.8,0.5c-0.5,0 -1,-0.4 -1.1,-1.1c-0.5,0.7 -1.3,1.2 -2.3,1.2c-1.4,0 -2.3,-0.9 -2.3,-2.2c0,-1.4 1.1,-2.2 2.7,-2.2c0.7,0 1.4,0.2 1.9,0.4l0,-0.6c0,-1.1 -0.7,-1.7 -2,-1.7c-0.6,0 -1.3,0.1 -1.8,0.4c-0.1,-0.1 -0.2,-0.3 -0.2,-0.5c0,-0.4 1,-0.9 2.3,-0.9c1.8,0 2.9,0.9 2.9,2.7l0,2.8c0,0.5 0.2,0.7 0.5,0.7l0.1,0l0,0.1zm-1.9,-1.3l0,-0.9c-0.4,-0.2 -1.2,-0.3 -1.7,-0.3c-1.1,0 -1.8,0.5 -1.8,1.2c0,0.8 0.6,1.2 1.4,1.2c0.8,0.1 1.7,-0.3 2.1,-1.2z" fill="#FFFFFF"/>
   <path id="svg_19" d="m159,88.1c-0.3,0 -0.4,-0.1 -0.4,-0.3l0,-6.6c0.3,-0.1 0.5,-0.1 0.8,-0.1c0.2,0 0.3,0.1 0.3,0.3l0,0.6c0.6,-0.5 1.5,-0.9 2.3,-0.9c1.6,0 2.4,1.1 2.4,3l0,2.6c0,0.5 0.1,0.7 0.5,0.7l0.3,0c0.1,0.1 0.1,0.2 0.1,0.4c0,0.2 -0.3,0.5 -0.8,0.5c-0.6,0 -1.1,-0.3 -1.1,-1.5l0,-2.7c0,-1.3 -0.5,-1.9 -1.6,-1.9c-0.7,0 -1.5,0.3 -2,0.8l0,5.2l-0.8,0l0,-0.1z" fill="#FFFFFF"/>
   <path id="svg_20" d="m171,87.1c0.1,0.1 0.2,0.3 0.2,0.5c0,0.3 -0.6,0.7 -1.5,0.7c-1.3,0 -2.1,-0.8 -2.1,-2.4l0,-3.7l-1,0c-0.2,0 -0.3,-0.1 -0.3,-0.3c0,-0.2 0,-0.4 0.1,-0.6l1.2,0l0,-1.9c0.3,-0.1 0.5,-0.1 0.8,-0.1c0.2,0 0.3,0.1 0.3,0.3l0,1.8l2.2,0c0.2,0 0.3,0.1 0.3,0.4l0,0.6l-2.5,0l0,3.8c0,0.9 0.5,1.3 1.3,1.3c0.3,-0.2 0.7,-0.3 1,-0.4z" fill="#FFFFFF"/>
   <path id="svg_21" d="m183.6,84.6c0,2.3 -1.5,3.6 -3.4,3.6c-1.8,0 -3.4,-1.3 -3.4,-3.6s1.5,-3.6 3.4,-3.6c1.9,0 3.4,1.4 3.4,3.6zm-1.1,0.1c0,-1.8 -1.1,-2.7 -2.3,-2.7c-1.1,0 -2.2,0.8 -2.2,2.5c0,1.8 1.1,2.7 2.3,2.7c1.2,0.1 2.2,-0.7 2.2,-2.5z" fill="#FFFFFF"/>
   <path id="svg_22" d="m186.1,88.1c-0.3,0 -0.4,-0.1 -0.4,-0.3l0,-6.6c0.3,-0.1 0.5,-0.1 0.8,-0.1c0.2,0 0.3,0.1 0.3,0.3l0,0.6c0.6,-0.5 1.5,-0.9 2.3,-0.9c1.6,0 2.4,1.1 2.4,3l0,2.6c0,0.5 0.1,0.7 0.5,0.7l0.3,0c0.1,0.1 0.1,0.2 0.1,0.4c0,0.2 -0.3,0.5 -0.8,0.5c-0.6,0 -1.1,-0.3 -1.1,-1.5l0,-2.7c0,-1.3 -0.5,-1.9 -1.6,-1.9c-0.7,0 -1.5,0.3 -2,0.8l0,5.2l-0.8,0l0,-0.1z" fill="#FFFFFF"/>
   <path id="svg_23" d="m202.5,87.1c0.1,0.1 0.2,0.3 0.2,0.5c0,0.3 -0.6,0.7 -1.5,0.7c-1.3,0 -2.1,-0.8 -2.1,-2.4l0,-3.7l-1,0c-0.2,0 -0.3,-0.1 -0.3,-0.3c0,-0.2 0,-0.4 0.1,-0.6l1.2,0l0,-1.9c0.3,-0.1 0.5,-0.1 0.8,-0.1c0.2,0 0.3,0.1 0.3,0.3l0,1.8l2.2,0c0.2,0 0.3,0.1 0.3,0.4l0,0.6l-2.5,0l0,3.8c0,0.9 0.5,1.3 1.3,1.3c0.3,-0.2 0.7,-0.3 1,-0.4z" fill="#FFFFFF"/>
   <path id="svg_24" d="m205,88.1c-0.3,0 -0.4,-0.1 -0.4,-0.3l0,-9.1c0.3,-0.1 0.5,-0.1 0.8,-0.1c0.2,0 0.3,0.1 0.3,0.3l0,3.1c0.6,-0.5 1.5,-0.9 2.3,-0.9c1.6,0 2.4,1.1 2.4,3l0,2.6c0,0.5 0.1,0.7 0.5,0.7l0.3,0c0.1,0.1 0.1,0.2 0.1,0.4c0,0.2 -0.3,0.5 -0.8,0.5c-0.6,0 -1.1,-0.3 -1.1,-1.5l0,-2.7c0,-1.3 -0.5,-1.9 -1.6,-1.9c-0.7,0 -1.5,0.3 -2,0.8l0,5.2l-0.8,0l0,-0.1z" fill="#FFFFFF"/>
   <path id="svg_25" d="m218.1,86.9c0.1,0.1 0.2,0.3 0.2,0.5c0,0.3 -0.8,0.9 -2,0.9c-2,0 -3.4,-1.5 -3.4,-3.6c0,-2.2 1.6,-3.6 3.4,-3.6c1.6,0 2.7,1.1 2.7,2.5c0,0.4 -0.1,0.7 -0.2,1c-0.2,0.4 -0.4,0.5 -0.9,0.5l-3.9,0c0.1,1.4 1.2,2.2 2.4,2.2c0.6,0 1.2,-0.1 1.7,-0.4zm-4.2,-2.7l3.7,0c0.1,-0.1 0.1,-0.3 0.1,-0.5c0,-1 -0.6,-1.6 -1.7,-1.6c-1.1,-0.1 -1.9,0.7 -2.1,2.1z" fill="#FFFFFF"/>
   <path id="svg_26" d="m230,86.9c0.1,0.1 0.2,0.3 0.2,0.5c0,0.3 -0.8,0.9 -2,0.9c-2,0 -3.4,-1.5 -3.4,-3.6c0,-2.2 1.6,-3.6 3.4,-3.6c1.6,0 2.7,1.1 2.7,2.5c0,0.4 -0.1,0.7 -0.2,1c-0.2,0.4 -0.4,0.5 -0.9,0.5l-3.9,0c0.1,1.4 1.2,2.2 2.4,2.2c0.6,0 1.2,-0.1 1.7,-0.4zm-4.2,-2.7l3.7,0c0.1,-0.1 0.1,-0.3 0.1,-0.5c0,-1 -0.6,-1.6 -1.7,-1.6c-1,-0.1 -1.9,0.7 -2.1,2.1z" fill="#FFFFFF"/>
   <path id="svg_27" d="m232.8,81.2c0.3,-0.1 0.5,-0.1 0.8,-0.1c0.2,0 0.3,0.1 0.3,0.3l0,3.9c0,1.3 0.5,1.9 1.6,1.9c0.7,0 1.5,-0.3 2,-0.8l0,-5.3l0.8,0c0.3,0 0.4,0.1 0.4,0.3l0,6.6c0,1.7 -1.1,3.2 -3.5,3.2c-1.5,0 -2.4,-0.7 -2.4,-1.7c0,-0.6 0.3,-1.2 1.1,-1.6c-0.8,-0.5 -1.2,-1.4 -1.2,-2.7l0,-4l0.1,0zm4.8,6.1c-0.6,0.5 -1.5,0.9 -2.3,0.9c-0.2,0 -0.4,0 -0.6,-0.1c-0.5,0.3 -0.7,0.8 -0.7,1.2c0,0.5 0.5,0.9 1.3,0.9c1.4,0 2.3,-0.8 2.3,-2.2l0,-0.7z" fill="#FFFFFF"/>
   <path id="svg_28" d="m246.1,86.9c0.1,0.1 0.2,0.3 0.2,0.5c0,0.3 -0.8,0.9 -2,0.9c-2,0 -3.4,-1.5 -3.4,-3.6c0,-2.2 1.6,-3.6 3.4,-3.6c1.6,0 2.7,1.1 2.7,2.5c0,0.4 -0.1,0.7 -0.2,1c-0.2,0.4 -0.4,0.5 -0.9,0.5l-3.9,0c0.1,1.4 1.2,2.2 2.4,2.2c0.6,0 1.2,-0.1 1.7,-0.4zm-4.1,-2.7l3.7,0c0.1,-0.1 0.1,-0.3 0.1,-0.5c0,-1 -0.6,-1.6 -1.7,-1.6c-1.1,-0.1 -2,0.7 -2.1,2.1z" fill="#FFFFFF"/>
   <path id="svg_29" d="m251,82c-0.8,0 -1.3,0.4 -1.3,1c0,0.6 0.5,1 1.7,1.3c1.5,0.4 2.1,1 2.1,2c0,1.2 -0.9,1.9 -2.5,1.9c-1.3,0 -2.2,-0.5 -2.2,-0.9c0,-0.2 0.1,-0.4 0.2,-0.5c0.6,0.3 1.2,0.4 1.9,0.4c1,0 1.5,-0.3 1.5,-0.9c0,-0.5 -0.3,-0.9 -1.4,-1.1c-1.7,-0.4 -2.4,-1.1 -2.4,-2.2c0,-1.2 1,-2 2.4,-2c1.1,0 2,0.5 2.4,1.2c0,0.1 0.1,0.2 0.1,0.2c0,0.1 -0.1,0.2 -0.2,0.3c-0.2,0.1 -0.5,0.2 -0.8,0.3c-0.2,-0.6 -0.8,-1 -1.5,-1z" fill="#FFFFFF"/>
  </g>
 </g>
</svg>