<svg width="35" height="35" viewBox="0 0 35 35" fill="none" xmlns="http://www.w3.org/2000/svg"><circle cx="17.5" cy="17.5" r="17.5" fill="#4880FF"/><path d="M10.578 25.264c-2.185 0-3.835-.8-4.95-2.398l.836-.836c.983 1.393 2.354 2.09 4.114 2.09 1.056 0 1.929-.337 2.618-1.012.704-.675 1.056-1.518 1.056-2.53 0-1.1-.345-1.973-1.034-2.618-.675-.645-1.547-.968-2.618-.968-1.335 0-2.523.477-3.564 1.43l-.946-.396v-7.7h8.47v1.144H7.344v5.742c.939-.91 2.105-1.364 3.498-1.364 1.305 0 2.413.418 3.322 1.254.91.821 1.364 1.965 1.364 3.432 0 1.423-.477 2.567-1.43 3.432-.953.865-2.127 1.298-3.52 1.298zm15.423-.682c-.719.455-1.548.682-2.486.682-.939 0-1.775-.227-2.508-.682a4.822 4.822 0 01-1.716-1.804 10.655 10.655 0 01-.902-2.42 11.588 11.588 0 01-.308-2.684c0-.924.102-1.811.308-2.662.205-.865.506-1.672.902-2.42a4.88 4.88 0 011.694-1.804c.733-.455 1.576-.682 2.53-.682.938 0 1.767.227 2.486.682a4.88 4.88 0 011.694 1.804 9.67 9.67 0 01.924 2.42c.205.85.308 1.738.308 2.662 0 .91-.103 1.797-.308 2.662a9.99 9.99 0 01-.924 2.442A4.88 4.88 0 0126 24.582zm-2.486-.462c.733 0 1.371-.19 1.914-.572a3.683 3.683 0 001.276-1.518 8.142 8.142 0 00.66-2.046c.146-.733.22-1.503.22-2.31 0-.807-.074-1.57-.22-2.288a7.777 7.777 0 00-.66-2.046 3.508 3.508 0 00-1.276-1.518c-.543-.381-1.181-.572-1.914-.572-.748 0-1.401.19-1.958.572-.543.367-.968.873-1.276 1.518a9.037 9.037 0 00-.66 2.046c-.147.719-.22 1.481-.22 2.288 0 .807.073 1.577.22 2.31.146.719.366 1.4.66 2.046.308.63.733 1.137 1.276 1.518.557.381 1.21.572 1.958.572z" fill="#fff"/></svg>