<svg width="18" height="16" viewBox="0 0 18 16" fill="none" xmlns="http://www.w3.org/2000/svg"><path d="M3.422 15.951c-.82 0-1.59-.319-2.169-.898a3.07 3.07 0 010-4.337l9.482-9.482A4.018 4.018 0 0113.596.049c1.081 0 2.098.42 2.862 1.185a4.02 4.02 0 011.185 2.861c0 1.081-.42 2.097-1.185 2.861L8.994 14.42a.573.573 0 11-.81-.81l7.463-7.464a2.88 2.88 0 00.85-2.05c0-.774-.303-1.502-.85-2.05a2.881 2.881 0 00-2.051-.85 2.88 2.88 0 00-2.05.85l-9.482 9.482a1.923 1.923 0 000 2.715c.726.725 1.99.725 2.716 0l6.366-6.367a.936.936 0 00.272-.657.93.93 0 00-1.586-.657L5.484 10.91a.573.573 0 11-.81-.81L9.02 5.75a2.08 2.08 0 012.936 0c.392.393.608.914.608 1.468a2.09 2.09 0 01-.608 1.468L5.59 15.053a3.05 3.05 0 01-2.169.898z" fill="#676767"/></svg>