<svg width="35" height="35" viewBox="0 0 35 35" fill="none" xmlns="http://www.w3.org/2000/svg"><circle cx="17.5" cy="17.5" r="17.5" fill="#4880FF"/><g clip-path="url(#clip0)" fill="#fff"><path d="M27.307 11.599a2.209 2.209 0 00-1.737-.837h-1.784v-.477h.182a1.144 1.144 0 000-2.285H12.033c-.63 0-1.143.512-1.143 1.142 0 .63.513 1.143 1.143 1.143h.181v.477H10.43c-.68 0-1.312.305-1.736.837a2.198 2.198 0 00-.427 1.87c.3 1.308.86 2.441 1.623 3.278.82.9 1.866 1.476 3.108 1.713a5.805 5.805 0 003.76 2.747c-.118 3.123-.776 3.882-.937 4.022h-.598c-1.28 0-2.412.937-2.884 2.387a.297.297 0 00.287.384h6.88a.294.294 0 00.293-.303.302.302 0 00-.306-.284h-6.446c.446-.982 1.268-1.597 2.176-1.597h5.554c.908 0 1.73.615 2.177 1.597h-2.243a.294.294 0 100 .587h2.671a.297.297 0 00.277-.391c-.473-1.446-1.603-2.38-2.882-2.38h-.597c-.162-.14-.82-.9-.938-4.022a5.806 5.806 0 003.76-2.747c1.243-.237 2.288-.812 3.108-1.713a.294.294 0 10-.434-.395 4.863 4.863 0 01-2.334 1.427 5.74 5.74 0 00.274-.828 4.15 4.15 0 001.546-1.068c.776-.851 1.146-1.938 1.321-2.7a.933.933 0 00-.913-1.138h-1.784v-.696h1.784c.5 0 .966.225 1.277.616.31.389.425.89.314 1.373a7.495 7.495 0 01-.707 1.909c-.072.132-.03.3.094.384.142.095.34.046.421-.104a8.026 8.026 0 00.764-2.058 2.198 2.198 0 00-.426-1.87zm-15.051 4.647a3.536 3.536 0 01-.983-.758c-.69-.757-1.024-1.743-1.183-2.436a.349.349 0 01.34-.42h1.784v2.924c0 .234.014.464.041.69zm-1.932.106c-.694-.763-1.208-1.805-1.484-3.014a1.613 1.613 0 01.313-1.373 1.625 1.625 0 011.277-.616h1.784v.696H10.43a.933.933 0 00-.912 1.138c.174.762.545 1.849 1.32 2.7.43.472.95.83 1.547 1.068.07.285.162.561.274.828a4.863 4.863 0 01-2.335-1.427zm9.119 8.877h-2.885c.329-.57.692-1.7.784-3.925a5.821 5.821 0 001.317 0c.091 2.226.455 3.354.784 3.925zM18 20.755a5.205 5.205 0 01-5.199-5.2v-5.27h1.45a.294.294 0 000-.587h-2.218a.556.556 0 010-1.11h11.935a.556.556 0 010 1.11h-8.542a.294.294 0 000 .587h7.773v5.27a5.205 5.205 0 01-5.199 5.2zm7.57-8.123a.349.349 0 01.34.42c-.158.693-.492 1.679-1.182 2.436a3.55 3.55 0 01-.983.758c.027-.226.041-.456.041-.69v-2.924h1.784z"/><path d="M20.191 13.767l-1.081-.157a.06.06 0 01-.046-.034l-.483-.98a.644.644 0 00-.58-.36.644.644 0 00-.582.36l-.483.98a.06.06 0 01-.046.034l-1.081.157a.643.643 0 00-.523.44.644.644 0 00.164.664l.783.763a.06.06 0 01.017.054l-.185 1.077a.644.644 0 00.258.633c.2.146.462.165.682.05l.967-.51a.06.06 0 01.056 0l.968.51a.65.65 0 00.681-.05.643.643 0 00.258-.633l-.184-1.077a.06.06 0 01.017-.054l.782-.763a.643.643 0 00.164-.664.644.644 0 00-.523-.44zm-.05.684l-.783.763a.647.647 0 00-.186.573l.184 1.077a.06.06 0 01-.087.064l-.967-.509a.653.653 0 00-.603 0l-.968.509a.06.06 0 01-.087-.064l.184-1.077a.647.647 0 00-.186-.573l-.782-.763a.06.06 0 01.033-.103l1.082-.157a.647.647 0 00.487-.355l.484-.98a.06.06 0 01.108 0l.484.98a.647.647 0 00.488.355l1.081.157a.06.06 0 01.034.103z"/></g><defs><clipPath id="clip0"><path fill="#fff" transform="translate(8 8)" d="M0 0h20v20H0z"/></clipPath></defs></svg>