<svg width="35" height="35" viewBox="0 0 35 35" fill="none" xmlns="http://www.w3.org/2000/svg"><circle cx="17.5" cy="17.5" r="17.5" fill="#4880FF"/><path d="M27 11h-4.333V9.667A1.669 1.669 0 0021 8h-6a1.669 1.669 0 00-1.667 1.667V11H9a1 1 0 00-1 1v7.42c.002.423.269.799.667.941V25a1 1 0 001 1h16.666a1 1 0 001-1v-4.639c.398-.142.665-.518.667-.941V12a1 1 0 00-1-1zM14 9.667a1 1 0 011-1h6a1 1 0 011 1V11h-.667V9.667A.333.333 0 0021 9.333h-6a.333.333 0 00-.333.334V11H14V9.667zM20.667 11h-5.334v-1h5.334v1zm6 14c0 .184-.15.333-.334.333H9.667A.333.333 0 019.333 25v-4.524l7.334 1.011v.846a1 1 0 001 1h.666a1 1 0 001-1v-.846l7.334-1.011V25zm-8-2.667c0 .184-.15.334-.334.334h-.666a.333.333 0 01-.334-.334v-2c0-.184.15-.333.334-.333h.666c.184 0 .334.15.334.333v2zm8.666-2.913a.333.333 0 01-.286.33l-.093.013-7.62 1.051v-.48a1 1 0 00-1-1h-.667a1 1 0 00-1 1v.48L8.954 19.75a.333.333 0 01-.287-.33V12c0-.184.149-.333.333-.333h18c.184 0 .333.149.333.333v7.42z" fill="#fff"/></svg>