<svg width="18" height="18" viewBox="0 0 18 18" fill="none" xmlns="http://www.w3.org/2000/svg"><g clip-path="url(#clip0)" fill="#6C7185"><path d="M17.809 7.315L9.276 1.068a.468.468 0 00-.552 0L.19 7.315a.468.468 0 10.553.755L9 2.025l8.256 6.044a.465.465 0 00.654-.1.468.468 0 00-.101-.654z"/><path d="M15.547 8.175a.468.468 0 00-.467.468v7.444h-3.742v-4.063A2.341 2.341 0 009 9.685a2.341 2.341 0 00-2.339 2.339v4.063H2.92V8.643a.468.468 0 00-.936 0v7.912c0 .258.21.468.468.468H7.13a.467.467 0 00.468-.468v-4.531a1.404 1.404 0 012.806 0v4.531a.467.467 0 00.468.468h4.677c.258 0 .467-.21.467-.468V8.643a.468.468 0 00-.468-.468z"/></g><defs><clipPath id="clip0"><path fill="#fff" d="M0 0h18v18H0z"/></clipPath></defs></svg>