<svg width="15" height="15" viewBox="0 0 15 15" fill="none" xmlns="http://www.w3.org/2000/svg"><path fill-rule="evenodd" clip-rule="evenodd" d="M14.953 6.667c-.024-.21-.27-.369-.482-.369a1.666 1.666 0 01-1.553-1.028 1.67 1.67 0 01.42-1.854.416.416 0 00.045-.566 7.425 7.425 0 00-1.188-1.2.417.417 0 00-.57.046c-.447.495-1.25.68-1.87.42A1.666 1.666 0 018.74.488.416.416 0 008.373.05 7.488 7.488 0 006.686.046a.417.417 0 00-.372.429 1.669 1.669 0 01-1.027 1.6c-.613.25-1.41.068-1.856-.423a.418.418 0 00-.566-.047 7.45 7.45 0 00-1.213 1.2.417.417 0 00.044.57c.522.472.69 1.224.42 1.87-.26.617-.9 1.014-1.632 1.014a.408.408 0 00-.433.369 7.513 7.513 0 00-.004 1.705c.024.212.277.369.492.369A1.645 1.645 0 012.082 9.73a1.666 1.666 0 01-.42 1.854.417.417 0 00-.045.566 7.45 7.45 0 001.187 1.2.417.417 0 00.57-.045c.45-.497 1.252-.68 1.87-.421.648.27 1.055.925 1.015 1.628a.417.417 0 00.368.438 7.462 7.462 0 001.687.005.417.417 0 00.372-.43 1.667 1.667 0 011.026-1.6c.617-.252 1.411-.067 1.857.423a.42.42 0 00.566.048 7.475 7.475 0 001.214-1.2.416.416 0 00-.045-.57 1.662 1.662 0 01-.42-1.871 1.679 1.679 0 011.534-1.017l.093.003a.418.418 0 00.439-.368 7.5 7.5 0 00.003-1.706zm-7.44 3.35a2.504 2.504 0 01-2.503-2.5 2.504 2.504 0 012.502-2.502 2.504 2.504 0 012.502 2.502 2.504 2.504 0 01-2.502 2.502z" fill="#ADAEB6"/></svg>