<svg width="16" height="18" viewBox="0 0 16 18" fill="none" xmlns="http://www.w3.org/2000/svg"><path d="M10.036 13.243c1.452-2.408 3.287-5.793 3.287-7.534A5.328 5.328 0 008 .387a5.328 5.328 0 00-5.322 5.322c0 1.74 1.835 5.126 3.287 7.534-1.723.13-5.643.598-5.643 2.148 0 1.526 3.98 2.222 7.682 2.222 3.698 0 7.681-.696 7.681-2.222-.003-1.55-3.926-2.018-5.65-2.148zM3.413 5.71A4.596 4.596 0 018 1.118a4.597 4.597 0 014.592 4.591c0 2.212-3.523 7.76-4.592 9.39-1.068-1.63-4.588-7.178-4.588-9.39zM8 16.88c-4.496 0-6.946-.985-6.946-1.491 0-.39 1.617-1.23 5.343-1.445.7 1.129 1.23 1.927 1.301 2.021.095.127.373.278.608 0 .074-.087.601-.893 1.301-2.021 3.727.214 5.344 1.051 5.344 1.445-.004.51-2.454 1.49-6.95 1.49z" fill="#6C7185"/><path d="M10.317 5.71a2.317 2.317 0 10-4.633-.001 2.317 2.317 0 004.633 0zm-3.902 0a1.586 1.586 0 113.172 0 1.586 1.586 0 01-3.172 0z" fill="#6C7185"/></svg>