<svg width="151" height="83" viewBox="0 0 151 83" fill="none" xmlns="http://www.w3.org/2000/svg"><path d="M109.463 56.237c8.073 0 14.618-6.545 14.618-14.619 0-8.073-6.545-14.618-14.618-14.618s-14.618 6.545-14.618 14.618c0 8.074 6.545 14.619 14.618 14.619z" fill="#FFC501"/><g filter="url(#filter0_d)"><path d="M109.463 52.292c5.895 0 10.674-4.779 10.674-10.674s-4.779-10.673-10.674-10.673-10.674 4.778-10.674 10.673c0 5.895 4.779 10.674 10.674 10.674z" fill="#fff"/></g><path d="M109.463 48.603a6.984 6.984 0 100-13.969 6.984 6.984 0 000 13.969z" fill="#FF822E"/><path d="M109.463 45.91a4.29 4.29 0 100-8.583 4.29 4.29 0 000 8.582z" fill="#fff"/><path d="M5.18 55.788H2.199v-17.48H0v-2.804h7.401v2.803h-2.21l-.011 17.48zm10.384.009h-3.083l-.456-7.506H10.3l-.442 7.506H6.722l1.71-19.226c.051-.702.394-1.053 1.03-1.053h3.315c.652 0 1.019.353 1.105 1.055l1.682 19.224zm-4.46-17.483c-.136 0-.205.06-.205.18l-.442 7.094h1.413l-.405-7.094c0-.12-.069-.18-.206-.18h-.155zm13.735 17.487H21.76l-1.023-17.3c0-.12-.069-.18-.205-.18h-.155c-.137 0-.205.06-.205.18l-1.03 17.298h-3.14l1.709-19.228c.051-.702.395-1.053 1.03-1.053h3.315c.684 0 1.053.351 1.105 1.053L24.84 55.8zm9.283.007H31.04l-.456-7.506h-1.722l-.445 7.502h-3.135L26.99 36.57c.052-.704.394-1.055 1.03-1.053h3.315c.65 0 1.019.353 1.103 1.055l1.684 19.235zm-4.46-17.48c-.138 0-.204.059-.204.177l-.442 7.097h1.412l-.405-7.094c0-.121-.069-.18-.208-.18h-.152zm13.149 17.487h-2.905v-8.92h-2.051v8.92H34.92l.014-20.281h2.93v8.66h2.05v-8.66h2.906l-.009 20.281zm6.014.002h-2.98V38.34h-2.211v-2.805h7.401v2.803h-2.21v17.48zm10.799-3.308c0 2.213-.84 3.318-2.523 3.315h-4.085c-.774 0-1.159-.395-1.156-1.185V35.543h2.93v7.584h2.314c1.68 0 2.515 1.097 2.506 3.29l.014 6.092zm-3.446.537c.429 0 .643-.316.643-.95v-5.32c0-.653-.214-.976-.642-.978H54.79v6.966c0 .189.084.282.257.282h1.13zm7.4 2.783h-2.929l.014-20.281h2.93l-.015 20.28zm9.074.004h-2.98l.01-17.478h-2.21V35.55h7.402v2.803h-2.21l-.012 17.48zm11.004-3.383c0 2.26-.84 3.39-2.52 3.39H76.38v-2.78h3.675c.445 0 .668-.314.668-.95v-1.798h-2.54c-1.661 0-2.491-1.132-2.491-3.395v-11.36h2.93v11.027c0 .652.214.977.643.977h1.438V35.557h2.962l-.01 16.892zm6.011 3.395h-2.98v-17.48h-2.21V35.56h7.4v2.803h-2.21v17.48z" fill="#4880FF"/><path d="M109.463 44.086a2.468 2.468 0 100-4.936 2.468 2.468 0 000 4.936z" fill="#FF855F"/><path d="M114.085 32.47c.187 0 .271.193.403.227s.18-.034.485.014c.306.047.349.04.431.132.082.091.121-.087.228.05.089.098.171.2.248.308.11.164.272.435.335.505.117.13.338.06.524.208.124.1.183.118.228.214a.842.842 0 01.645.198l.242.2c.054.327.13.649.228.965.104.305.191.66.066.811a2.03 2.03 0 01-.645.36c-.157.062-.308.228-.492.175-.185-.052-.399-.296-.613-.307-.016.036-.101-.228-.415-.032-.194.116-.64 3.145-.684 3.136.028.252.18.89.167.993.016.244.05.486.1.725a9.08 9.08 0 01.073 2.05c-.119 1.104-.114 3.617-.228 4.401-.114.784-.613 5.58-.738 6.068-.15.614-.246 1.239-.288 1.869 0 0 .878.433.935.456.228.052.332.177.276.26.054.054.061.097.02.125-.36.077-.728.116-1.096.118-.228-.02-.538-.198-.861-.28-.324-.082-.684-.091-.762-.294-.011 0 0-.492 0-.492l-.36-.144s.253-3.53.479-5.2c-.13-1.595.33-4.264.33-4.264s-1.501 10.107-1.501 10.118c.247.194.507.372.777.533.043.03-.03.13-.03.13s.08.069.027.094c-.227.111-.606.093-.97.1a2.359 2.359 0 01-1.103-.353 3.802 3.802 0 01-.474-.171c-.048 0 .086-.504.141-.768 0-.082-.15 0-.308-.132.174-1.397.392-5.3.554-6.727.251-2.208-.205-4.646-.039-6.485.167-1.84.946-1.247.44-4.674-.059-.399-.33-.982-.544-1.648-.294-.911-.88-2.584-.636-3.56.228-.91 1.723-.735 1.793-.77.084-.292.142-.59.173-.893 0-.048-.07-.048-.141-.095-.071-.048-.061-.067-.098-.26a2.733 2.733 0 00-.2-.502 3.014 3.014 0 01-.208-.813c0-.203-.109-.554-.018-.882.091-.328.321-.542.64-.911.269-.317.408-.253 1.06-.335.435-.055.709 0 .754.191.42.141.107.531.198.684.169.139.187.383.249.542.041.105.228.157.055.44-.13.228.029.538.038.583.019.059.041.117.066.173.02.23-.004.462-.068.684-.026.205-.099.4-.214.572a.33.33 0 01-.292.166 2.47 2.47 0 00-.123.818c.198.152.372.332.515.536.016.091.041.06.226.06z" fill="#00365C"/><path d="M109.73 36.86c-.144-.631-.729-4.102-2.033-4.304a.99.99 0 01-.795-.575c-.146-.378-.046-.455-.066-.788.077.08.257.207.344.292.472.196.613-.082.747-.493a1.24 1.24 0 00-.25-1.044c.337-.455.344-1.139-.114-1.777-.458-.638-1.021-.59-1.418-.583a1.222 1.222 0 00-1.08.501c-.442.54-.478 1.999-.36 2.388.08.26.347.513.645.789.021.155 0 .189.064.861-1.139.337-1.791.267-2.527 1.108-.429.485-1.579 2.067-1.835 2.36-.2.19-.319.27-.33.386-.016.173.485 1.663.946 2.595.405.818.487 1.247.72 1.486.279.18.579.326.893.433 0 1.408.048 6.228.15 6.889.126.806.456 5.596.57 6.088.062.279.214 1.596.228 1.876.014.28-.524.433-.563.444-.187.062-.228.303-.194.324.239.05.482.068.725.052.695-.102.652-.558.877-.588l.039.397.26-.055a3.97 3.97 0 000-.636l.098-.111s0-3.478-.135-5.127c.183-1.632-.143-4.376-.143-4.376s1.185 5.41 1.219 10.155a2.022 2.022 0 01-.531.512c-.043.032 0 .228 0 .228s.349.02.711.032c.479.016.561-.684.959-.731 0 .189.021.41.021.41l.264-.05a6.237 6.237 0 00-.052-.773c.014-.082.041-.014.084-.066.057-1.443-.143-5.36-.139-6.795.018-4.223.864-6.962-.045-8.402.752-.579 1.631-1.251 1.984-1.846.29-.492.21-.845.062-1.486zm-7.449.54c-.267-.683-.351-.893-.155-1.164.305-.426.697-.839 1.139-1.367-.137.353-.175 1.057.228 1.49.581.62.216 2.568.098 3.163-.039.205-.39.143-.424.08-.034-.064-.547-1.343-.886-2.202zm6.38.556c-.018.148-.526.912-1.31 1.634-.135-2.853.987-3.12.59-4.257.426.748.738 2.193.77 2.304 0 .108-.015.216-.045.32h-.005z" fill="#00365C"/><defs><filter id="filter0_d" x="68.789" y=".945" width="81.347" height="81.347" filterUnits="userSpaceOnUse" color-interpolation-filters="sRGB"><feFlood flood-opacity="0" result="BackgroundImageFix"/><feColorMatrix in="SourceAlpha" values="0 0 0 0 0 0 0 0 0 0 0 0 0 0 0 0 0 0 127 0"/><feOffset/><feGaussianBlur stdDeviation="15"/><feColorMatrix values="0 0 0 0 0 0 0 0 0 0 0 0 0 0 0 0 0 0 0.1 0"/><feBlend in2="BackgroundImageFix" result="effect1_dropShadow"/><feBlend in="SourceGraphic" in2="effect1_dropShadow" result="shape"/></filter></defs></svg>