<svg width="20" height="16" viewBox="0 0 20 16" fill="none" xmlns="http://www.w3.org/2000/svg"><path d="M1.92 4.987c.253.178 1.015.708 2.288 1.59 1.272.882 2.247 1.56 2.924 2.037.074.052.232.165.474.34.242.175.443.317.603.424.16.108.353.23.58.363.227.134.44.234.642.301.2.067.387.1.558.1h.022c.171 0 .357-.033.558-.1.201-.067.415-.167.642-.301.227-.134.42-.255.58-.363.16-.107.361-.249.603-.424s.4-.288.474-.34l5.224-3.628a5.298 5.298 0 001.361-1.372c.365-.536.547-1.098.547-1.685a1.71 1.71 0 00-.53-1.262 1.725 1.725 0 00-1.256-.524H1.786C1.213.143.772.336.463.723.154 1.11 0 1.593 0 2.174c0 .469.205.977.614 1.524.409.546.844.976 1.306 1.289z" fill="#4880FF"/><path d="M18.884 6.18c-2.44 1.652-4.293 2.936-5.558 3.851-.424.313-.768.556-1.032.731a6.373 6.373 0 01-1.055.536c-.439.182-.848.273-1.228.273H9.99c-.38 0-.789-.09-1.228-.273a6.378 6.378 0 01-1.055-.536 26.482 26.482 0 01-1.032-.73C5.67 9.294 3.821 8.011 1.127 6.18A5.912 5.912 0 010 5.21v8.861c0 .492.175.912.525 1.261.35.35.77.525 1.26.525h16.43a1.72 1.72 0 001.26-.524c.35-.35.525-.77.525-1.262V5.21c-.32.357-.692.68-1.116.97z" fill="#4880FF"/></svg>