<svg width="35" height="35" viewBox="0 0 35 35" fill="none" xmlns="http://www.w3.org/2000/svg"><circle cx="17.5" cy="17.5" r="17.5" fill="#4880FF"/><path d="M9.139 26.191L26.19 9.14l.67.67L9.808 26.86l-.67-.67zm2.703-11.507a2.845 2.845 0 002.842-2.842A2.845 2.845 0 0011.842 9 2.845 2.845 0 009 11.842a2.845 2.845 0 002.842 2.842zm0-4.737c1.045 0 1.895.85 1.895 1.895s-.85 1.895-1.895 1.895a1.897 1.897 0 01-1.895-1.895c0-1.045.85-1.895 1.895-1.895zm12.315 11.369a2.845 2.845 0 00-2.842 2.842A2.845 2.845 0 0024.157 27 2.845 2.845 0 0027 24.158a2.845 2.845 0 00-2.843-2.842zm0 4.737a1.897 1.897 0 01-1.894-1.895c0-1.045.85-1.895 1.894-1.895 1.046 0 1.895.85 1.895 1.895s-.85 1.895-1.895 1.895z" fill="#fff"/></svg>