<svg width="33" height="33" viewBox="0 0 33 33" fill="none" xmlns="http://www.w3.org/2000/svg"><path d="M32.711 31.317l-8.02-8.02a14.014 14.014 0 003.454-9.226C28.145 6.307 21.831 0 14.075 0 6.31 0 .004 6.315.004 14.07c0 7.757 6.315 14.072 14.07 14.072 3.528 0 6.754-1.303 9.228-3.454l8.019 8.02c.19.19.446.292.695.292a.99.99 0 00.695-1.683zM1.972 14.071c0-6.673 5.43-12.095 12.095-12.095 6.674 0 12.095 5.429 12.095 12.095s-5.421 12.102-12.095 12.102c-6.666 0-12.095-5.43-12.095-12.102z" fill="#fff"/></svg>