<svg width="45" height="45" viewBox="0 0 45 45" fill="none" xmlns="http://www.w3.org/2000/svg"><rect width="45" height="45" rx="5" fill="#4880FF"/><g clip-path="url(#clip0)"><path d="M31.809 21.216l-16.137-6.695a1.92 1.92 0 00-2.004.323 1.92 1.92 0 00-.607 1.938l1.436 5.632h7.032a.586.586 0 010 1.172h-7.032l-1.436 5.633a1.92 1.92 0 00.607 1.937 1.92 1.92 0 002.005.324l16.136-6.696A1.902 1.902 0 0033 23c0-.795-.456-1.479-1.191-1.784z" fill="#fff"/></g><defs><clipPath id="clip0"><path fill="#fff" transform="translate(13 13)" d="M0 0h20v20H0z"/></clipPath></defs></svg>