<svg width="20" height="20" viewBox="0 0 20 20" fill="none" xmlns="http://www.w3.org/2000/svg"><g clip-path="url(#clip0)"><path d="M19.217 8.745h0a.926.926 0 00.236-.958.926.926 0 00-.755-.636l-4.842-.703h0a1.133 1.133 0 01-.853-.62m6.214 2.917L13.45 5.606m5.766 3.139l-3.504 3.416h0a1.13 1.13 0 00-.326 1.003s0 0 0 0m3.83-4.419l-3.83 4.419m-2.384-7.337l.448-.22m-.448.22h0l.448-.22m-.448.22L10.838 1.44h0A.925.925 0 0010 .92a.925.925 0 00-.838.52h0L6.997 5.828l-.448-.221m6.902 0l-2.165-4.388A1.426 1.426 0 0010 .419c-.55 0-1.043.307-1.286.8L6.549 5.607m0 0l.448.221h0m-.448-.221a.633.633 0 01-.477.346l-4.843.704a1.426 1.426 0 00-1.158.976m6.926-1.805l9.065 6.69a.634.634 0 00-.183.561l.827 4.823c.074.424-.037.837-.312 1.163a1.438 1.438 0 01-1.1.516 1.42 1.42 0 01-.668-.167l-4.331-2.277a.648.648 0 00-.59 0l-4.33 2.277a1.45 1.45 0 01-1.769-.349 1.404 1.404 0 01-.313-1.163l.827-4.823m2.877-7.251a1.133 1.133 0 01-.853.62h0L1.3 7.152h0a.926.926 0 00-.755.636m6.451-1.96l-6.45 1.96M.07 7.633c-.17.524-.03 1.087.364 1.47l3.503 3.416c.15.146.218.355.183.56M.07 7.633l.476.155h0m-.475-.155l.475.155s0 0 0 0m3.574 5.291l.493.085h0l-.827 4.822v.001a.904.904 0 00.202.756h0a.95.95 0 001.154.228s0 0 0 0l4.33-2.277h.001c.328-.172.728-.17 1.053 0h.001l4.332 2.277h0a.92.92 0 00.434.11.938.938 0 00.718-.338h0a.904.904 0 00.203-.756h0l-.827-4.823M4.12 13.079l11.267.085" stroke="#FFC501"/></g><defs><clipPath id="clip0"><path fill="#fff" d="M0 0h20v20H0z"/></clipPath></defs></svg>